<?xml version="1.0" encoding="UTF-8" standalone="no"?>
<!-- Created with Inkscape (http://www.inkscape.org/) -->

<svg
   version="1.1"
   id="svg1"
   width="250"
   height="250"
   viewBox="0 0 250 250"
   sodipodi:docname="JmDNS_icon1_250x250.svg"
   inkscape:version="1.3.2 (091e20e, 2023-11-25, custom)"
   xmlns:inkscape="http://www.inkscape.org/namespaces/inkscape"
   xmlns:sodipodi="http://sodipodi.sourceforge.net/DTD/sodipodi-0.dtd"
   xmlns="http://www.w3.org/2000/svg"
   xmlns:svg="http://www.w3.org/2000/svg">
  <defs
     id="defs1" />
  <sodipodi:namedview
     id="namedview1"
     pagecolor="#ffffff"
     bordercolor="#000000"
     borderopacity="0.25"
     inkscape:showpageshadow="2"
     inkscape:pageopacity="0.0"
     inkscape:pagecheckerboard="true"
     inkscape:deskcolor="#d1d1d1"
     inkscape:zoom="2.5201286"
     inkscape:cx="52.973488"
     inkscape:cy="88.289146"
     inkscape:window-width="1680"
     inkscape:window-height="979"
     inkscape:window-x="-8"
     inkscape:window-y="137"
     inkscape:window-maximized="1"
     inkscape:current-layer="g1" />
  <g
     inkscape:groupmode="layer"
     inkscape:label="Image"
     id="g1">
    <g
       id="g55">
      <ellipse
         style="display:inline;fill:#ffffff;stroke-width:1.02092"
         id="path54"
         cx="104.65736"
         cy="102.07812"
         rx="92.753204"
         ry="91.165985" />
      <rect
         style="display:inline;fill:#ffffff"
         id="rect55"
         width="42.656551"
         height="13.888182"
         x="222.84961"
         y="-12.625906"
         transform="rotate(45)" />
    </g>
    <g
       id="g2">
      <path
         style="display:inline;fill:#ced3cd"
         d="m 221.16751,241.53307 c -1.83286,-0.82824 -10.83286,-8.6537 -20,-17.38991 C 192.00038,215.40694 181.8,205.91519 178.5,203.05038 c -7.48695,-6.49961 -8.07744,-7.52016 -6.09857,-10.54029 1.52669,-2.33002 1.40585,-2.52398 -5.49896,-8.82586 l -7.05995,-6.44349 -5.61723,3.38252 C 128.95981,195.83734 92.287752,197.86444 65.412594,185.53251 57.867833,182.07052 45.39365,174.03279 39.320036,168.71978 33.756381,163.85288 24.399931,150.71321 20.016936,141.6116 13.949372,129.01187 11.924629,120.50657 11.301308,105 10.810442,92.788556 11.006355,90.476369 13.353866,80.775585 21.691174,46.322742 45.936415,22.496779 83,12.333858 92.710572,9.6711967 117.63717,9.9425217 128.28378,12.82677 160.43907,21.537887 186.05969,46.407932 195.42394,78 c 6.66244,22.47702 2.00682,53.34558 -11.0355,73.16957 l -5.42258,8.24218 6.20926,6.26494 c 4.9024,4.94637 6.67537,6.14795 8.42393,5.70909 3.22153,-0.80855 5.98358,1.02795 14.39304,9.56998 4.12935,4.19445 13.73003,13.63208 21.33484,20.97251 7.60482,7.34042 14.24232,14.43876 14.75,15.77408 2.89941,7.62601 -0.34942,18.44884 -6.7199,22.38601 -4.34134,2.6831 -11.94703,3.36181 -16.18952,1.44471 z m -82.30703,-67.21116 c 7.6444,-2.12213 15.43198,-7.40455 24.65428,-16.72331 13.2343,-13.37275 21.21757,-31.84783 21.984,-50.87594 L 185.91051,96.5 184.49985,107 c -1.70667,12.70319 -5.54133,25.02419 -10.19613,32.76077 -10.08516,16.7622 -20.51998,26.0499 -38.17731,33.98039 -4.19453,1.8839 -6.50141,3.12008 -5.12641,2.74706 1.375,-0.37302 4.91222,-1.34786 7.86048,-2.16631 z m 42.45707,-4.48055 c -4.25945,-4.25945 -5.01279,-4.69793 -4.62986,-2.6948 0.28027,1.46616 1.97791,3.26754 4.38482,4.65278 2.16012,1.24321 3.92749,2.77194 3.92749,3.39719 0,0.62524 0.31607,0.82073 0.70238,0.43442 0.38631,-0.38631 -1.58686,-2.99162 -4.38483,-5.78959 z m -57.95927,2.19489 c 7.9966,-2.04519 18.99395,-7.09668 25.85987,-11.87841 20.94511,-14.58707 33.38646,-45.26231 28.37957,-69.972313 C 174.8224,76.488754 172.44992,71.579238 165.58681,65.330663 159.42433,59.719974 150.20289,52.816028 144.9911,49.910986 143.42318,49.037028 141.09626,47.643813 139.82017,46.814954 131.76274,41.581413 110.4603,37.970295 98.903399,39.878877 81.933522,42.681393 70.356064,48.433284 58.712195,59.846598 50.064614,68.322951 44.771775,76.522477 41.830032,86 c -4.171292,13.438804 -2.634848,43.37456 2.977597,58.0149 1.613515,4.20893 9.917536,12.6488 17.225018,17.5068 18.477492,12.28382 39.987783,15.97185 61.325633,10.51455 z M 97.984398,160.14839 c -5.195811,-2.76106 -7.975594,-7.45066 -8.029609,-13.54627 L 89.909579,141.5 83.87339,137.7296 77.8372,133.9592 74.889164,136.43981 C 65.157149,144.62876 50,137.0433 50,123.98392 50,117.412 54.716939,110.66035 60.140542,109.46913 62.924823,108.8576 63,108.67208 63,102.41245 V 95.983806 L 58.971943,94.372097 C 53.746485,92.281283 50,86.201384 50,79.812181 50,74.361433 54.087062,68.035005 58.894982,66.0435 c 4.258865,-1.76408 12.136599,-0.869264 15.89254,1.805202 l 3.043046,2.16684 6.105752,-3.637178 c 5.76922,-3.436707 6.074628,-3.809176 5.541051,-6.757771 -0.756936,-4.182906 2.976665,-11.409353 7.420512,-14.362522 6.237437,-4.145104 15.841317,-2.241807 20.302667,4.023581 1.3208,1.854888 2.33119,5.085247 2.5984,8.307465 0.43199,5.209215 0.50747,5.315741 6.29969,8.890903 l 5.86246,3.618517 3.75158,-2.549268 c 5.00654,-3.402028 12.55092,-3.532628 17.28783,-0.299269 6.07915,4.149566 8.55148,11.998241 5.81266,18.452947 C 157.142,89.641496 151.94932,95 149.80383,95 148.23718,95 148,95.920417 148,102 c 0,5.38784 0.32779,7 1.42327,7 2.03695,0 7.39194,4.74197 9.11265,8.06946 3.91697,7.57458 -0.97968,19.27174 -9.2037,21.98591 -4.46563,1.47379 -10.71977,0.33085 -14.19616,-2.59434 l -2.79454,-2.35145 -6.25394,3.76148 -6.25394,3.76148 -0.28191,5.23311 c -0.30526,5.66655 -3.89699,11.42605 -8.64934,13.86961 -3.47889,1.78877 -8.91194,1.54195 -12.917992,-0.58687 z m 3.458442,-19.24717 C 105.3011,138.62479 106.0423,137 103.22251,137 100.80358,137 97,139.78534 97,141.5567 c 0,1.86882 0.219327,1.83646 4.44284,-0.65548 z m -7.115111,-6.31289 c 0.297939,-0.77641 2.146084,-1.99181 4.106989,-2.70088 L 102,130.59822 v -6.79911 C 102,117.83054 101.77217,117 100.13486,117 c -1.025829,0 -3.091908,-0.96497 -4.591288,-2.14439 l -2.726145,-2.14438 -3.658714,2.21703 c -2.012292,1.21936 -4.809675,2.70033 -6.216405,3.29103 -2.223779,0.93379 -2.557693,1.68209 -2.557693,5.73173 0,4.62514 0.04236,4.6835 6.057693,8.34576 6.83394,4.16064 7.134651,4.24803 7.885421,2.29155 z m 29.387281,-2.23538 c 5.82749,-3.6307 5.85292,-3.66754 5.672,-8.21579 -0.11253,-2.82897 -0.69681,-4.73344 -1.53437,-5.00125 -0.74395,-0.23789 -3.23372,-1.71579 -5.53282,-3.28422 -4.96907,-3.38987 -5.7292,-3.46143 -9.04695,-0.85169 -1.39842,1.1 -3.1569,2 -3.90773,2 -1.02121,0 -1.36514,1.73298 -1.36514,6.87868 0,6.68309 0.0844,6.91362 2.96684,8.10759 1.63177,0.6759 3.48687,1.85549 4.12245,2.62132 1.62053,1.95262 2.05516,1.83902 8.62572,-2.25464 z M 67.177657,116 c 0.906586,0 0.931271,-0.29107 0.09556,-1.12678 C 64.480646,112.08065 57,116.99881 57,121.62736 c 0,2.61315 0.02422,2.60504 4.477657,-1.5 2.462711,-2.27005 5.027711,-4.12736 5.7,-4.12736 z m 76.388213,0.71948 c 1.56413,-0.81953 2.26978,-1.70302 1.66081,-2.07938 -1.36951,-0.84641 -5.44221,0.70974 -7.1068,2.71545 -1.1118,1.33964 -1.00938,1.50833 0.71421,1.1764 1.10667,-0.21312 3.23597,-1.02874 4.73178,-1.81247 z m -59.618283,-5.77223 5.727543,-3.05275 -0.258326,-5.53449 -0.258326,-5.534492 -5.587295,-3.494875 -5.587294,-3.494874 -3.06867,2.582116 C 73.227451,93.838048 71.206076,95 70.423275,95 69.330182,95 69,96.59577 69,101.87868 c 0,6.68309 0.08436,6.91362 2.966844,8.10759 1.631765,0.6759 3.486865,1.85549 4.122445,2.62132 1.505562,1.81409 1.230615,1.87218 7.858298,-1.66034 z M 135.59514,111.5 c 2.02617,-1.375 4.29616,-2.5 5.04441,-2.5 1.0084,0 1.36045,-1.69013 1.36045,-6.53138 0,-5.318848 -0.32488,-6.645841 -1.75,-7.147887 -0.9625,-0.339074 -3.18578,-1.677471 -4.94062,-2.974216 l -3.19062,-2.357719 -5.80938,3.499228 -5.80938,3.499228 -0.069,5.405596 -0.069,5.4056 5.069,3.01151 c 2.78795,1.65633 5.38652,3.05168 5.77459,3.10077 0.38808,0.0491 2.36337,-1.03573 4.38955,-2.41073 z m -6.21612,-31.317604 c -0.1172,-4.298509 -0.31125,-4.558173 -6.20862,-8.307741 l -6.08764,-3.870545 -3.68093,2.497945 C 111.37732,71.875925 109.3337,73 108.86045,73 108.3872,73 108,76.0596 108,79.799112 v 6.799111 l 3.40181,1.230109 c 1.87099,0.67656 3.91366,1.84686 4.53926,2.600667 0.94061,1.133361 2.21233,0.749255 7.3482,-2.219425 6.19288,-3.579666 6.21038,-3.602731 6.08975,-8.027178 z M 96,89 c 1.375,-1.075541 3.2875,-1.965534 4.25,-1.977764 C 101.74788,87.003203 102,85.991529 102,80 c 0,-5.387843 -0.32779,-7 -1.42327,-7 -0.782806,0 -2.806842,-1.164191 -4.497864,-2.587092 l -3.074584,-2.587092 -4.752141,2.902271 C 85.638464,72.324335 82.7125,73.924403 81.75,74.283794 80.417688,74.781269 80,76.081025 80,79.729424 v 4.792194 l 5.75,3.215794 C 92.50674,91.516243 92.745559,91.545661 96,89 Z M 66.977657,73 C 67.539946,73 68,72.55 68,72 68,71.45 66.629545,71 64.954545,71 61.116543,71 57,74.923699 57,78.581905 v 2.672815 l 4.477657,-4.12736 C 63.940368,74.857312 66.415368,73 66.977657,73 Z M 100.79422,53.431578 c 1.23158,-0.862632 1.98015,-1.987632 1.66349,-2.5 -0.95524,-1.545613 -2.14043,-1.064754 -3.865753,1.568422 -1.872882,2.858379 -1.04725,3.207628 2.202263,0.931578 z M 18.852707,93.810205 C 23.238864,56.75148 50.425818,28.177458 89.056787,20.024338 100.98906,17.506015 110.25984,17.48149 122.19225,19.936679 133.22476,22.206705 139.38346,24.493591 151,30.63374 c 9.11901,4.820032 7.43056,2.474036 -2.59052,-3.599377 C 135.82066,19.404744 113.73021,14.238085 99,15.478154 60.189866,18.745402 27.746656,44.749049 19.123734,79.5 c -2.111758,8.510525 -3.897696,28.10332 -2.324397,25.5 0.498583,-0.825 1.4226,-5.860408 2.05337,-11.189795 z"
         id="path10" />
      <path
         style="display:inline;fill:#b2caca"
         d="m 221.16751,241.53307 c -1.83286,-0.82824 -10.83286,-8.64811 -20,-17.37749 C 192.00038,215.4262 182.025,206.11818 179,203.47108 c -7.83754,-6.85841 -8.53456,-8.00629 -6.62827,-10.91566 1.50492,-2.2968 1.36122,-2.53133 -5.48816,-8.95699 C 163.01512,179.96929 159.48887,177 159.04746,177 c -0.44141,0 -1.39325,0.71172 -2.11518,1.5816 -1.84825,2.22701 -11.53192,6.96291 -20.13895,9.84917 C 112.02207,196.73752 85.798995,195.31341 63.5,184.45039 43.667627,174.78899 29.702921,161.17383 20.54738,142.57289 13.987166,129.24477 11.941769,120.93297 11.301308,105 10.810442,92.788556 11.006355,90.476369 13.353866,80.775585 21.69103,46.323337 45.987897,22.449133 83,12.341001 c 8.880747,-2.4253624 33.55522,-2.4375294 43.32891,-0.02137 32.22444,7.96624 59.04603,33.040696 68.59335,64.125247 7.25964,23.636232 2.86754,54.610912 -10.59577,74.725282 l -5.45361,8.14777 6.25575,6.31185 c 4.94207,4.9864 6.72081,6.19513 8.47042,5.756 3.14361,-0.789 6.0461,1.05241 12.90095,8.18463 3.3,3.43353 12.3,12.22417 20,19.53477 7.7,7.31059 15.01019,14.89013 16.24488,16.8434 4.78998,7.5778 1.83404,19.91537 -5.86049,24.46064 -4.07492,2.40711 -11.67449,2.95053 -15.71688,1.12385 z M 239,220.80316 C 239,219.32088 196.9687,177 195.49656,177 c -0.58568,0 -3.52451,2.57275 -6.53072,5.71721 -3.00621,3.14447 -4.53041,4.94447 -3.3871,4 1.14331,-0.94446 2.4253,-1.71721 2.84887,-1.71721 0.42357,0 2.19294,-0.67516 3.93192,-1.50037 l 3.16179,-1.50036 17.48934,17.06519 C 227.9938,213.68424 237.2899,222 238.65004,222 238.84252,222 239,221.46142 239,220.80316 Z M 123,180.83861 c 7.28467,-1.34108 21.09691,-7.23083 28.25866,-12.04992 7.72403,-5.19746 18.48102,-16.18663 22.57414,-23.06139 4.50921,-7.57362 9.03694,-18.84844 10.73313,-26.7273 1.53083,-7.11077 1.8024,-24.315725 0.43407,-27.5 -0.55752,-1.297422 -0.89022,1.688536 -0.94708,8.5 -0.18197,21.79921 -6.69436,38.8524 -20.55292,53.81933 -12.34734,13.33485 -26.66988,21.20489 -44.95851,24.70408 -8.38037,1.60343 -22.519963,1.87728 -29.29149,0.56731 -2.452692,-0.47448 -4.25,-0.44279 -4.25,0.0749 0,3.30917 23.49376,4.34349 38,1.67295 z m 62.67994,-5.37703 C 186.06573,174.30265 177.39889,165 175.93338,165 c -2.11924,0 -0.69394,4.1037 2.76261,7.95407 3.48142,3.87809 6.20249,4.85506 6.98395,2.50751 z M 123,172.48564 c 14.27687,-3.41924 29.89413,-13.10103 39.13231,-24.25975 4.766,-5.7568 11.98206,-19.58234 14.47116,-27.72589 2.56961,-8.40689 2.56901,-28.596519 -10e-4,-37 C 170.79702,64.518201 157.78581,47.990219 143.5,41.450454 126.98044,33.888123 108.76276,30.43597 95.5,32.35471 87.394978,33.527274 74.130918,38.073668 69.09644,41.404805 66.5236,43.107162 63.712496,44.95 62.849542,45.5 c -0.862954,0.55 -2.644627,1.756797 -3.959274,2.681772 -1.314648,0.924975 -3.057674,1.824975 -3.873393,2 C 52.808928,50.655522 41.41,64.756077 38.591563,70.5 33.038505,81.81703 31.76311,86.969878 31.240107,100.20133 30.69992,113.86752 31.335736,117.94595 35.729739,129 44.447053,150.93026 64.114666,167.48858 88,173.00676 c 9.862615,2.27854 24.2016,2.06504 35,-0.52112 z M 99.5,160.62933 c -6.597839,-3.07211 -9.5,-7.67045 -9.5,-15.05229 0,-4.16288 -0.179404,-4.4035 -5.929459,-7.95264 l -5.929458,-3.65987 -3.671121,2.49129 c -5.32985,3.61694 -9.411558,4.10595 -14.709723,1.76232 C 53.415697,135.41165 50.5,130.91039 50.5,123.92216 c 0,-4.54524 0.509485,-6.24581 2.7521,-9.18603 1.513655,-1.98451 4.326155,-4.17738 6.25,-4.87305 L 63,108.59822 v -6.79911 C 63,95.757079 62.785844,95 61.076725,95 58.360783,95 52.979884,90.196105 51.364026,86.32881 48.514306,79.508472 50.146443,73.71264 56.483713,68.148444 61.209817,63.99887 67.869582,63.743657 73.404862,67.5 c 2.026176,1.375 3.942607,2.5 4.258736,2.5 0.316129,0 3.221145,-1.607582 6.455591,-3.572404 C 89.911422,62.909001 90,62.786516 90,58.29563 90,46.765135 102.95459,39.086829 112.01017,45.25 c 5.31059,3.614356 7.48983,7.28194 7.48983,12.605119 0,4.642624 0.0811,4.760445 5.79958,8.426669 C 128.48935,68.326805 131.50687,70 132.00517,70 c 0.49831,0 2.56379,-1.125 4.58997,-2.5 4.48567,-3.044061 10.45549,-3.294038 15.39554,-0.644664 3.82956,2.053817 8.02248,8.905367 7.98736,13.051948 C 159.92869,85.732967 153.455,95 149.43469,95 c -1.55458,0 -2.05372,2.87059 -1.59382,9.16632 0.29881,4.09052 0.70735,4.81812 3.31088,5.89654 4.79311,1.98537 8.353,7.48691 8.32089,12.8593 -0.0814,13.62061 -12.49702,20.95986 -23.32988,13.79101 l -3.99484,-2.64366 -6.38165,3.68987 -6.38165,3.68988 v 4.60371 c 0,10.9635 -10.73824,18.83513 -19.88462,14.57636 z m 2.07193,-19.22435 c 4.59272,-2.69151 5.43115,-4.08283 3.01833,-5.00872 C 101.61568,135.25481 96,139.62532 96,143.08179 c 0,1.3789 0.735376,1.1576 5.57193,-1.67681 z m 16.89018,-5.34368 c 0.31909,-0.51628 2.98846,-2.31659 5.93195,-4.00069 5.3065,-3.03607 5.35017,-3.10043 5.16037,-7.60475 -0.18715,-4.44141 -0.33309,-4.6299 -6.54044,-8.44726 l -6.34902,-3.90448 -2.90921,2.44794 C 112.15569,115.89843 110.20608,117 109.42327,117 108.32871,117 108,118.60582 108,123.95308 v 6.95309 l 3.59183,1.70443 c 1.97551,0.93744 3.82365,2.30855 4.10699,3.04692 0.59834,1.55924 1.92901,1.75369 2.76329,0.40378 z m -23.551399,-1.45371 c 0.63558,-0.76583 2.49068,-1.94542 4.122445,-2.62132 C 101.90225,130.79785 102,130.53795 102,124.09792 c 0,-6.31141 -0.14372,-6.72127 -2.75,-7.84238 -1.5125,-0.65061 -3.519426,-1.74806 -4.459836,-2.43878 -1.436652,-1.05521 -2.753418,-0.70153 -8.241563,2.21369 l -6.531728,3.46955 -0.0084,4.50245 c -0.0082,4.39037 0.1347,4.59415 5.741564,8.18636 6.444562,4.12892 7.508318,4.40979 9.160711,2.41878 z M 59.127555,122.33328 c 0.754845,-0.9167 3.076595,-2.90485 5.159445,-4.41812 4.073169,-2.9593 3.539785,-4.4753 -1.207707,-3.43258 -3.446617,0.75701 -5.680601,3.04427 -6.60979,6.76742 -0.774916,3.105 0.548998,3.64455 2.658052,1.08328 z m 82.272485,-3.52841 C 143.54506,117.26219 145.93412,116 146.70906,116 c 0.77493,0 1.13086,-0.45 0.79094,-1 -0.33992,-0.55 -1.97609,-1 -3.63594,-1 -3.33422,0 -8.86406,4.6677 -8.86406,7.48209 0,1.80847 0.38942,1.64557 6.40004,-2.67722 z M 84.090231,111.04175 89.5,108.08349 l 0.04199,-5.86601 c 0.03525,-4.924183 -0.285869,-6.033054 -2,-6.906362 -1.123094,-0.572189 -3.856268,-2.070809 -6.073719,-3.330267 l -4.03173,-2.289925 -2.864293,2.654537 C 72.996886,93.805458 71.098665,95 70.353977,95 69.346189,95 69,96.76382 69,101.89846 v 6.89846 l 4.25,2.56252 c 2.3375,1.40938 4.515604,2.58008 4.840231,2.60154 0.324627,0.0215 3.024627,-1.29219 6,-2.91923 z m 50.755399,1.08945 c 1.4599,-1.02785 3.66687,-2.18317 4.90437,-2.56739 2.04979,-0.63642 2.25,-1.31548 2.25,-7.6312 C 142,96.753003 141.65599,95 140.63955,95 c -0.74825,0 -2.99953,-1.112306 -5.00284,-2.47179 l -3.64239,-2.471791 -5.98052,3.221791 -5.98051,3.22179 -0.0166,5.65348 -0.0166,5.65348 5.25,3.04026 c 6.2936,3.64462 6.2508,3.63889 9.59563,1.28398 z M 101.02144,97.367114 C 104.74133,94.905408 106.32685,92 103.95034,92 102.24345,92 97,94.975336 97,95.943893 c 0,0.490892 -0.273145,1.604336 -0.606989,2.47432 -0.840672,2.190757 0.02762,1.993567 4.628429,-1.051099 z M 100.73213,87 C 101.63192,87 102,85.02159 102,80.185212 102,73.50782 101.93448,73.336573 98.75,71.691378 96.9625,70.767903 94.825,69.526657 94,68.933055 92.842958,68.100543 91.071008,68.705057 86.25,71.577027 L 80,75.300276 v 4.76006 4.760061 l 6.25,3.442021 6.25,3.442022 3.482135,-2.35222 C 97.897308,88.058499 100.03481,87 100.73213,87 Z m 22.58691,1.416561 c 6.17937,-3.554059 6.22977,-3.619278 6.14829,-7.954592 -0.0877,-4.666254 -0.90611,-5.638919 -8.71481,-10.357483 l -3.74748,-2.26449 -4.46601,2.830002 -4.46601,2.830002 -0.0365,6.75 c -0.0283,5.234354 0.28778,6.75 1.40773,6.75 0.79433,0 2.70683,1.110779 4.25,2.468399 1.54317,1.357619 2.93819,2.482619 3.10006,2.5 0.16186,0.01738 3.09799,-1.580947 6.52474,-3.551838 z M 61.314217,77.463037 c 2.27268,-1.94533 5.153604,-3.793333 6.402054,-4.106673 C 71.094659,72.508442 69.429628,71 65.115297,71 c -4.264289,0 -7.529421,2.736805 -8.649575,7.25 -0.892326,3.595253 -0.125784,3.470835 4.848495,-0.786963 z m 80.940543,-2.718641 c 3.91761,-3.046638 4.13962,-5.298787 0.41108,-4.170138 C 139.5277,71.524192 136,75.048304 136,77.233331 c 0,2.134186 0.63479,1.881587 6.25476,-2.488935 z m -40.9826,-20.8172 C 105.46348,50.472354 105.96621,49 102.95455,49 100.55341,49 96,53.22604 96,55.454545 c 0,2.240375 1.081276,1.927128 5.27216,-1.527349 z M 19.272198,103 C 18.760596,93.76259 20.294719,84.532957 23.959263,74.801554 25.49648,70.719386 26.515665,69.260649 27.55256,69.658543 28.424876,69.993282 29,69.60957 29,68.692838 c 0,-0.836627 1.56705,-3.134772 3.482334,-5.106989 1.915283,-1.972217 3.152783,-3.600161 2.75,-3.617652 -0.402784,-0.01749 0.06915,-0.639826 1.04874,-1.382965 0.979591,-0.743138 1.879591,-2.715002 2,-4.38192 0.120409,-1.666917 0.389207,-2.861803 0.597327,-2.655301 C 39.593572,52.257619 48,44.758512 48,43.410923 48,42.623407 47.376216,42.302138 46.5,42.638374 45.675,42.954956 45,43.029052 45,42.803032 45,41.671987 59.36889,31.793495 65.5,28.709453 74.179863,24.34335 79.24638,22.835019 73.147926,26.432622 70.754286,27.84468 68.274688,29 67.637708,29 c -0.636979,0 -2.371407,1.125 -3.854282,2.5 -1.482876,1.375 -3.278278,2.506891 -3.989782,2.515313 -0.926676,0.01097 -0.872524,0.281582 0.190899,0.953972 1.033904,0.653726 2.096343,0.391388 3.5,-0.864222 C 64.593044,33.113478 70.675,30.606953 77,28.535007 c 9.917971,-3.248933 13.158093,-3.838832 23.55292,-4.288066 12.25812,-0.52976 21.86426,0.508067 30.44708,3.289438 2.475,0.802055 4.85357,1.443411 5.28571,1.425237 0.43215,-0.01817 1.47679,0.658027 2.32143,1.50267 0.84465,0.844643 2.06607,1.52203 2.71429,1.505305 0.64821,-0.01672 0.38161,-0.494382 -0.59246,-1.06146 -2.53634,-1.476592 -1.1708,-3.026612 1.70361,-1.933764 1.29898,0.49387 2.61817,0.641552 2.93154,0.328182 0.69565,-0.695656 13.7172,6.916356 18.88549,11.03991 5.86324,4.678015 5.47299,2.426311 -0.45143,-2.604698 C 137.58698,15.479239 104.60692,9.4055544 72.862501,20.990835 61.539361,25.12327 52.109381,30.951924 43.470613,39.157909 24.600018,57.083128 16.622094,74.958932 16.540095,99.5 c -0.02205,6.6 0.380314,14.25 0.894147,17 l 0.934242,5 0.687238,-5 c 0.37798,-2.75 0.475395,-8.825 0.216476,-13.5 z M 34.638374,54.5 C 34.954956,53.675 35.670933,53 36.229434,53 36.814738,53 36.717549,53.635407 36,54.5 35.315311,55.325 34.599334,56 34.40894,56 34.218546,56 34.32179,55.325 34.638374,54.5 Z M 140,27 c -0.825,-0.533156 -1.05,-0.969374 -0.5,-0.969374 0.55,0 1.675,0.436218 2.5,0.969374 0.825,0.533156 1.05,0.969374 0.5,0.969374 -0.55,0 -1.675,-0.436218 -2.5,-0.969374 z M 79.5,23 c 1.1,-0.472686 2.675,-0.859429 3.5,-0.859429 0.945479,0 0.760639,0.317714 -0.5,0.859429 -1.1,0.472686 -2.675,0.859429 -3.5,0.859429 -0.945479,0 -0.760639,-0.317714 0.5,-0.859429 z M 51,40.5 c 0.694433,-0.83674 0.802716,-1.5 0.244889,-1.5 -0.55,0 -1.5602,0.675 -2.244889,1.5 -0.694433,0.83674 -0.802716,1.5 -0.244889,1.5 0.55,0 1.5602,-0.675 2.244889,-1.5 z M 147,31 c 0,-0.55 -0.45,-1 -1,-1 -0.55,0 -1,0.45 -1,1 0,0.55 0.45,1 1,1 0.55,0 1,-0.45 1,-1 z"
         id="path9" />
      <path
         style="display:inline;fill:#9eacab"
         d="m 222.62173,242.01751 c -1.58305,-0.50224 -6.53305,-4.44032 -11,-8.75131 C 207.15478,228.95522 196.1875,218.748 187.25,210.58348 178.3125,202.41897 171,195.55683 171,195.33427 c 0,-0.22255 0.73175,-1.52143 1.62612,-2.88641 1.61043,-2.45782 1.56079,-2.54192 -5.14449,-8.71482 -3.72384,-3.42817 -7.14227,-6.3786 -7.59652,-6.55651 -0.45425,-0.1779 -2.3153,0.81255 -4.13567,2.20101 -3.568,2.72145 -15.43286,8.04651 -22.73725,10.20469 -7.3339,2.16691 -21.81541,4.41807 -28.39318,4.41375 -8.008557,-0.005 -22.622556,-2.41204 -29.931877,-4.92948 C 56.180001,182.69237 37.362997,168.72874 27.19578,153.82435 16.748862,138.50994 12.002354,123.6159 11.317494,104 10.894148,91.87441 11.104637,89.499537 13.384998,80.673061 14.781358,75.268244 17.077686,68.325776 18.487951,65.245353 25.883876,49.090525 41.704279,31.53097 56.479728,23.077105 65.317332,18.020615 80.52023,12.567268 90,11.053236 c 51.55328,-8.2336752 102.26493,29.851316 107.88686,81.024189 2.17228,19.772905 -2.82881,42.239515 -12.85597,57.753485 -2.10718,3.26021 -4.32615,6.23354 -4.93106,6.60739 -2.05055,1.26731 -1.11281,3.0786 4.8237,9.31727 5.36019,5.63301 6.21515,6.16669 8.98989,5.61175 2.84448,-0.5689 3.91729,0.2076 14.82647,10.73135 27.8225,26.83952 34.20483,33.35365 35.32252,36.052 1.92549,4.64854 0.72115,13.13325 -2.45529,17.29777 -1.50716,1.97599 -3.75206,4.25565 -4.98867,5.0659 -2.87849,1.88607 -10.28325,2.68129 -13.99672,1.50317 z M 239,220.80316 C 239,219.32088 196.9687,177 195.49656,177 c -0.58568,0 -3.52451,2.57275 -6.53072,5.71721 -3.00621,3.14447 -4.53041,4.94447 -3.3871,4 1.14331,-0.94446 2.4253,-1.71721 2.84887,-1.71721 0.42357,0 2.19294,-0.67516 3.93192,-1.50037 l 3.16179,-1.50036 17.48934,17.06519 C 227.9938,213.68424 237.2899,222 238.65004,222 238.84252,222 239,221.46142 239,220.80316 Z M 118,181.95937 c 35.80876,-5.64967 62.47193,-32.90707 67.71415,-69.22328 1.46322,-10.13663 1.45787,-11.7548 -0.0682,-20.618014 C 183.89909,81.971927 184.3002,75 186.63084,75 188.8434,75 188.26593,72.925611 183.44552,63.557639 170.4163,38.236722 149.88281,22.735496 121.63566,16.8959 86.381966,9.6078261 49.514904,24.960047 29.269408,55.35915 16.080523,75.162582 12.494036,101.35654 19.602112,125.9644 c 1.249001,4.32399 1.773794,5.11528 2.514598,3.79153 0.514901,-0.92007 1.544242,-1.43953 2.287424,-1.15434 1.859921,0.71372 2.57816,-4.84647 1.295845,-10.03168 C 25.146405,116.33146 24.665719,109.1 24.631787,102.5 24.557458,88.042152 26.722086,79.228154 33.633583,65.846222 43.735239,46.287555 61.529958,32.634962 85.17291,26.303846 94.063043,23.923244 116.13226,23.920438 125,26.298781 c 22.50164,6.034977 41.67086,21.805828 51.64229,42.487019 5.32495,11.044185 7.31682,19.593711 7.34035,31.50636 0.0771,39.05709 -26.57337,70.6779 -65.84311,78.12283 -25.452371,4.82537 -51.166771,-2.89945 -70.252932,-21.10457 -5.521314,-5.26644 -5.737891,-5.37478 -4.590647,-2.29642 0.662227,1.77693 2.458094,4.1882 3.990816,5.35839 1.532722,1.17018 4.292128,3.36511 6.132015,4.87761 1.839886,1.5125 3.779204,2.75 4.309595,2.75 1.845178,0 7.289412,3.1622 6.802006,3.95084 -0.914491,1.47968 16.06862,8.10271 25.544803,9.9619 6.268701,1.22989 20.276774,1.25328 27.924814,0.0466 z m 68.03003,-7.86275 c -0.48189,-0.87814 -2.8466,-3.51529 -5.25491,-5.86032 l -4.37874,-4.2637 -2.23117,3.01782 c -2.62584,3.55164 -2.10263,5.10132 3.33398,9.87472 l 3.57561,3.13943 2.9157,-2.15567 c 2.16721,-1.60229 2.69078,-2.56553 2.03953,-3.75228 z M 123.5,172.5327 c 8.7804,-2.30469 23.14021,-9.53125 29.8562,-15.02509 10.80831,-8.84145 19.81392,-23.89065 23.8519,-39.85866 4.12646,-16.31797 0.88655,-36.671296 -8.34284,-52.410165 C 163.84958,56.685543 150.88925,44.193682 142.5,39.826534 130.94896,33.813469 120.94143,31.018652 108.49356,30.329504 80.554783,28.782739 57.085937,40.488041 42.100284,63.443759 33.412329,76.752372 30.684974,86.306582 30.665786,103.5 c -0.01208,10.82748 0.285457,12.85605 3.045146,20.76121 9.137072,26.17324 28.02436,42.74248 56.289068,49.38068 6.979079,1.6391 25.34655,1.03095 33.5,-1.10919 z M 100.00051,160.92187 C 93.928637,158.39058 90,152.40755 90,145.6918 90,141.39122 89.856822,141.1959 84.099273,137.64214 78.282011,134.05152 76,133.24633 76,134.78439 76,136.5452 69.912539,139 65.546048,139 c -6.198218,0 -9.942429,-2.11386 -13.007158,-7.34343 -3.129222,-5.33961 -3.199659,-8.92245 -0.28889,-14.69468 1.663752,-3.29932 3.357358,-4.97626 6.5,-6.43601 L 63,108.55176 v -6.57499 -6.574993 L 59.5021,94.13692 c -3.857597,-1.394925 -7.969066,-6.124958 -9.0343,-10.393493 -1.774069,-7.108938 4.251902,-17.037413 11.123017,-18.326442 4.778852,-0.896518 9.93647,0.272336 13.061046,2.959983 L 77.311614,70.66479 83.54438,67.082395 89.777147,63.5 l 0.41044,-5.545437 c 0.497834,-6.726217 2.76621,-10.160381 8.626828,-13.060419 9.660105,-4.780157 20.570205,2.105493 20.570205,12.982402 v 4.884429 l 6.5496,4.066565 c 6.3862,3.965112 6.5997,4.021107 8.55769,2.244475 C 137.67186,66.186613 140.58828,65 144.5,65 c 6.47971,0 12.86865,4.941636 14.57322,11.271911 1.98456,7.370112 -2.93378,16.445639 -10.32322,19.048822 -1.4009,0.493516 -1.75,1.800704 -1.75,6.552857 v 5.93637 l 4.40395,2.58088 c 5.52099,3.23552 9.12793,9.88182 8.05651,14.8453 C 157.45109,134.54481 152.50254,139 144.17243,139 c -3.89462,0 -5.68456,-0.56005 -7.99006,-2.5 -1.6341,-1.375 -3.27389,-2.5 -3.644,-2.5 -0.3701,0 -3.55902,1.6875 -7.08649,3.75 l -6.41357,3.75 -0.0191,4.88197 c -0.0212,5.40356 -2.50661,10.39695 -6.46637,12.99148 -3.17673,2.08148 -9.4248,2.85222 -12.55228,1.54842 z m 1.57142,-19.51689 c 4.59272,-2.69151 5.43115,-4.08283 3.01833,-5.00872 C 101.61568,135.25481 96,139.62532 96,143.08179 c 0,1.3789 0.735376,1.1576 5.57193,-1.67681 z m -1.10302,-9.98653 c 2.1066,-0.52872 2.32346,-1.16083 2.4115,-7.02881 0.0922,-6.14572 -0.0316,-6.49645 -2.64184,-7.48535 -1.506214,-0.57063 -3.676399,-1.91583 -4.822635,-2.98933 -2.075134,-1.94345 -2.112503,-1.93566 -8.720262,1.81661 l -6.636197,3.76843 -0.02974,4.5704 c -0.02942,4.52156 0.03706,4.61328 6.220262,8.58175 l 6.25,4.01135 2.827072,-2.33204 c 1.55489,-1.28263 3.868717,-2.59348 5.14184,-2.91301 z m 22.72861,1.61212 c 6.27386,-3.96687 6.27802,-3.97268 6.45972,-9 C 129.76597,121.02211 129.41055,119 128.77303,119 c -0.58631,0 -3.50422,-1.61839 -6.48425,-3.59641 -4.85409,-3.22197 -5.59369,-3.44276 -7.1035,-2.12059 -0.92691,0.8117 -3.03528,2.15739 -4.68528,2.99041 -2.94033,1.48446 -2.99331,1.64645 -2.66362,8.14433 0.33426,6.58796 0.36105,6.64233 4.25,8.62633 2.15249,1.09812 3.91362,2.43743 3.91362,2.97625 0,1.47301 0.4063,1.30424 7.19752,-2.98975 z M 69.589665,124.95659 C 72.015349,123.78234 74,122.15211 74,121.33387 74,118.57459 68.386138,114 65,114 c -4.165293,0 -9,4.70385 -9,8.75641 0,3.7017 0.122512,3.8008 5.059015,4.09207 2.592844,0.15299 5.7553,-0.54836 8.53065,-1.89189 z m 71.810375,-6.15172 C 143.54506,117.26219 145.93412,116 146.70906,116 c 0.77493,0 1.13086,-0.45 0.79094,-1 -0.33992,-0.55 -1.97609,-1 -3.63594,-1 -3.33422,0 -8.86406,4.6677 -8.86406,7.48209 0,1.80847 0.38942,1.64557 6.40004,-2.67722 z m -57.576982,-7.35904 5.9664,-3.55416 -0.0613,-5.69584 L 89.666854,96.5 83.583427,92.84117 77.5,89.182339 l -3,2.76418 C 72.85,93.466817 70.825,94.942436 70,95.22567 67.94133,95.932442 68.442448,110 70.526295,110 c 0.749198,0 2.624771,1.11078 4.167941,2.4684 1.54317,1.35762 2.886012,2.48262 2.984093,2.5 0.09808,0.0174 2.863209,-1.56777 6.144729,-3.52257 z m 51.097462,1.13878 c 1.24802,-1.32847 3.35147,-2.68704 4.67431,-3.01905 C 141.84772,109.00012 142,108.51991 142,101.98095 142,97.010393 141.63488,95 140.73213,95 c -0.69732,0 -2.96549,-1.153569 -5.04037,-2.563487 l -3.77251,-2.563486 -6.22808,3.482941 -6.22808,3.482942 0.51845,5.59733 c 0.51239,5.53184 0.5828,5.63714 6.01846,9.00107 3.025,1.87206 5.75906,3.43951 6.07569,3.48322 0.31662,0.0437 1.5968,-1.00746 2.84483,-2.33592 z M 101.02144,97.367114 C 104.74133,94.905408 106.32685,92 103.95034,92 102.24345,92 97,94.975336 97,95.943893 c 0,0.490892 -0.273145,1.604336 -0.606989,2.47432 -0.840672,2.190757 0.02762,1.993567 4.628429,-1.051099 z m -1.452141,-9.833192 c 2.937701,-1.349317 3.077051,-1.6911 3.250101,-7.97184 C 102.95595,74.60611 102.6672,73 101.63965,73 c -0.74831,0 -3.105562,-1.184193 -5.238348,-2.63154 -3.834957,-2.602473 -3.911059,-2.611579 -6.889547,-0.824439 -1.656465,0.993905 -4.599468,2.625754 -6.540006,3.62633 -3.467156,1.787728 -3.519104,1.906516 -3,6.860036 0.518927,4.951833 0.634155,5.100937 6.528251,8.447492 5.458115,3.099013 6.180628,3.273883 8,1.936243 1.1,-0.808743 3.381184,-2.104833 5.069299,-2.8802 z m 23.918211,0.971926 c 5.94719,-3.410472 5.98852,-3.465837 6.13681,-8.219724 L 129.77362,75.5 123.13681,71.307821 116.5,67.115642 114,69.411229 c -1.375,1.262572 -3.2875,2.57243 -4.25,2.910794 -1.43848,0.505692 -1.75,1.84529 -1.75,7.525272 0,6.71788 0.0825,6.944243 2.96684,8.138972 1.63177,0.675898 3.48687,1.855493 4.12245,2.62132 1.53183,1.845747 1.50125,1.853402 8.39822,-2.101739 z M 62.613162,85 c 1.356583,0 4.192867,-0.88072 6.302855,-1.957155 2.109987,-1.076435 4.061467,-1.732027 4.336623,-1.456872 1.270082,1.270082 1.390963,-2.528312 0.172672,-5.425775 C 70.600942,69.443 60.726141,68.761331 57.469615,75.058757 55.555432,78.76038 55.614124,81.372759 57.699698,85.29966 59.008507,87.764002 59.48532,88.097544 59.773022,86.75 60.006309,85.657322 61.073102,85 62.613162,85 Z M 142.25476,74.744396 c 3.91761,-3.046638 4.13962,-5.298787 0.41108,-4.170138 C 139.5277,71.524192 136,75.048304 136,77.233331 c 0,2.134186 0.63479,1.881587 6.25476,-2.488935 z m -40.9826,-20.8172 C 105.46348,50.472354 105.96621,49 102.95455,49 100.55341,49 96,53.22604 96,55.454545 c 0,2.240375 1.081276,1.927128 5.27216,-1.527349 z M 36.796329,144.04548 c -0.671341,-1.07499 -1.414279,-1.76086 -1.650975,-1.52417 -0.428595,0.4286 1.750732,3.47869 2.485565,3.47869 0.212316,0 -0.16325,-0.87953 -0.83459,-1.95452 z M 27.683114,125.8125 c -0.319226,-0.79773 -0.556183,-0.56078 -0.604167,0.60417 -0.04342,1.05416 0.192928,1.64479 0.52522,1.3125 0.332291,-0.33229 0.367818,-1.1948 0.07895,-1.91667 z"
         id="path8" />
      <path
         style="display:inline;fill:#e4a449"
         d="m 222.5,241.83529 c -1.65,-0.60284 -6.6,-4.54108 -11,-8.75166 -4.4,-4.21057 -15.29974,-14.32391 -24.22164,-22.4741 l -16.22165,-14.81852 1.53557,-2.96945 1.53556,-2.96946 -6.70841,-6.17605 c -3.68963,-3.39683 -7.08007,-6.32161 -7.53432,-6.49952 -0.45425,-0.1779 -2.30173,0.78324 -4.10551,2.13588 -4.79663,3.59696 -16.63856,8.49495 -27.64535,11.43453 -8.17285,2.18271 -11.75788,2.573 -23.63425,2.573 -11.854024,0 -15.466902,-0.39189 -23.569829,-2.55666 C 40.270176,179.90058 13.071771,146.40379 11.292933,105 10.815144,93.879089 11.038835,91.331471 13.320459,81.908504 14.73097,76.083181 17.044292,68.695697 18.461175,65.491874 24.897551,50.938084 39.597182,33.716 52.799272,25.261368 70.867715,13.690317 95.434983,8.159573 116.5,10.920643 137.11363,13.622548 155.3843,22.618219 170.48404,37.5 c 25.53907,25.170436 33.95962,58.040339 23.49643,91.71911 -3.65858,11.7762 -6.38336,17.53537 -11.41511,24.12733 -1.96095,2.56897 -3.56536,5.01134 -3.56536,5.42749 0,0.41614 2.71305,3.60775 6.029,7.09247 4.73376,4.9747 6.50615,6.22713 8.25,5.82974 1.22155,-0.27837 2.96178,-0.21138 3.86717,0.14887 0.90539,0.36024 11.5662,10.24235 23.69068,21.96024 23.81263,23.01407 24.78513,24.36986 23.92219,33.3507 -0.51648,5.37503 -4.44696,11.36399 -8.89204,13.549 -3.71279,1.82503 -10.00844,2.35741 -13.367,1.13034 z m 14.83846,-23.72853 C 235.39186,215.07592 196.68271,177 195.54806,177 c -1.30496,0 -8.27098,6.13526 -10.54794,9.29001 l -2.31684,3.20999 2.47281,-2.25 c 1.36005,-1.2375 2.8258,-2.25 3.25723,-2.25 0.43143,0 2.25237,-0.69659 4.04652,-1.54797 l 3.26211,-1.54797 7.88902,7.85936 c 7.27949,7.25211 31.5851,30.33484 33.88903,32.18398 1.81164,1.45402 1.71161,-0.92416 -0.16154,-3.84064 z M 131,179.17163 c 12.08085,-3.97149 20.36447,-8.87465 29.72838,-17.59654 14.52083,-13.52523 22.63438,-29.37957 25.62623,-50.07509 0.93913,-6.49629 1.50681,-8.37407 2.04062,-6.75 0.84325,2.56552 2.60477,3.03281 2.60477,0.69098 0,-0.85746 0.45,-1.2809 1,-0.94098 2.96142,1.83026 -0.26977,-21.857545 -4.52286,-33.156955 C 179.30763,49.638637 158.74131,29.083528 137,20.893409 103.52241,8.2821412 65.556388,16.272386 40.954363,41.10696 32.423903,49.718055 27.196982,57.065798 23.037186,66.294028 11.46308,91.970416 14.360791,126.79895 29.83507,148 c 3.771974,5.16792 3.831247,5.21865 3.835705,3.28333 0.0023,-0.98083 -0.709533,-2.30904 -1.581761,-2.95157 -0.872228,-0.64253 -1.307409,-1.4467 -0.967069,-1.78704 0.340341,-0.34034 3.708883,2.58197 7.485649,6.49402 12.182136,12.6185 23.662015,20.38147 37.392406,25.28563 11.833963,4.2268 14.572098,4.61114 30.5,4.28111 13.63594,-0.28254 15.8639,-0.5948 24.5,-3.43385 z M 91.869528,178.994 C 62.040393,174.26721 37.517306,153.37525 27.821127,124.42926 25.788231,118.36046 25.501301,115.57525 25.510473,102 25.520134,87.70198 25.732001,85.901511 28.242579,78.782254 36.836198,54.41328 52.869962,37.98181 76.5,29.327839 c 9.424968,-3.451683 10.833797,-3.687158 24.5,-4.095003 16.4885,-0.49207 22.7022,0.388467 33.74744,4.782321 9.68561,3.852979 16.94208,8.591344 25.11973,16.402798 24.30671,23.218249 30.77789,57.379415 16.57395,87.493295 -10.6867,22.65696 -28.03871,36.71979 -53.27095,43.17311 -8.81188,2.25369 -23.481495,3.14869 -31.300642,1.90964 z m 27.456972,-5.42945 c 18.73469,-3.58454 35.96873,-14.45277 45.89516,-28.94266 C 174.44463,131.15887 179,117.01639 179,101.84607 179,82.010351 172.24194,66.121963 157.55999,51.440012 142.21612,36.096144 126.8308,29.814171 104.5,29.775116 84.246917,29.739694 68.348158,35.677949 54.252525,48.542765 37.158696,64.143978 28.944022,84.169513 30.298826,106.93652 c 0.893151,15.00907 5.348391,26.78237 14.96915,39.55707 16.292627,21.63377 45.904094,32.45779 74.058524,27.07096 z M 95.801371,157.9878 c -4.091301,-3.37239 -6.27303,-8.62917 -5.539034,-13.34605 0.459841,-2.95508 0.09522,-3.39083 -6.136724,-7.33393 L 77.5,133.11564 l -2.748983,2.6283 c -2.165975,2.07088 -3.994996,2.71842 -8.624157,3.05326 -5.628989,0.40717 -6.047757,0.26906 -9.99378,-3.29594 -2.35606,-2.12855 -4.5904,-5.29562 -5.221066,-7.40059 -2.114368,-7.05714 2.159091,-15.30033 9.337986,-18.0123 2.632813,-0.9946 2.748456,-1.32756 2.713762,-7.81362 L 62.927525,95.5 58.713762,93.5 C 50.312659,89.51254 47.784545,78.904461 53.461558,71.461513 59.333371,63.76317 68.443644,62.98744 76,69.542391 c 1.259248,1.092366 2.535772,0.677406 7.953362,-2.585406 l 6.453363,-3.886618 -0.264242,-4.296961 C 89.649963,50.764296 96.757694,43.450395 104.91761,43.569702 113.32817,43.692674 119,49.635354 119,58.324569 c 0,4.38405 0.0601,4.460509 6.67627,8.490233 l 6.67627,4.066344 2.85317,-2.400782 c 7.03132,-5.916468 18.06289,-3.66298 22.31427,4.558272 1.74118,3.36708 1.91821,9.405939 0.40312,13.752103 C 156.77583,90.081811 151.1704,95 148.56672,95 147.29627,95 147,96.300768 147,101.87868 c 0,6.70251 0.077,6.91055 3.0046,8.12323 1.65253,0.6845 4.35253,2.77975 6,4.65611 2.47547,2.8194 2.9954,4.28204 2.9954,8.42644 0,14.27607 -14.19872,21.15072 -24.5,11.86225 -1.94414,-1.75299 -2.18822,-1.68666 -8.73922,2.37497 -6.62084,4.10492 -6.73941,4.25385 -6.75,8.47798 -0.013,5.18715 -1.88197,9.07272 -6.05159,12.58122 -4.63954,3.90392 -12.15366,3.73178 -17.157819,-0.39308 z m 5.813779,-16.60815 c 4.58545,-2.68725 5.25051,-4.65325 1.75021,-5.17382 C 101.07683,135.86548 96,140.17104 96,142.45225 c 0,2.06097 0.397779,1.98498 5.61515,-1.0726 z m -1.822131,-9.45734 C 102.97792,130.81205 103,130.75758 103,124.01058 c 0,-6.57925 -0.0868,-6.81532 -2.75,-7.4763 -1.5125,-0.3754 -3.704106,-1.57276 -4.870235,-2.66082 l -2.120236,-1.97827 -6.629764,3.64417 L 80,119.18354 v 4.81705 4.81706 l 6.25,3.9854 c 6.149976,3.92163 6.282696,3.95542 8.293019,2.11132 1.123661,-1.03076 3.486161,-2.37718 5.25,-2.99206 z m 21.153231,2.73784 c 1.95456,-1.28692 4.79125,-3.0973 6.30375,-4.02306 2.40617,-1.47275 2.75,-2.30546 2.75,-6.66014 C 130,121.23963 129.54308,119 128.98462,119 c -0.55847,0 -3.42591,-1.6005 -6.3721,-3.55666 l -5.35672,-3.55666 -3.76745,2.55666 C 111.41626,115.8495 109.18132,117 108.52184,117 c -0.84085,0 -1.13286,2.13343 -0.97742,7.14114 0.21191,6.82752 0.34758,7.19409 3.089,8.34677 1.57705,0.6631 3.48478,1.94959 4.23941,2.85886 1.75177,2.11075 1.83992,2.10079 6.07342,-0.68662 z m -51.290803,-9.7354 c 4.664167,-2.25789 4.976273,-2.87013 3.18121,-6.24049 -1.740399,-3.26772 -3.963077,-4.61708 -7.66358,-4.65246 C 60.559871,113.9877 56,118.57544 56,123.26094 c 0,3.37217 0.05811,3.41699 4.655447,3.59088 2.994589,0.11327 6.205391,-0.57422 9,-1.92707 z m 71.744593,-6.11988 c 2.14502,-1.54268 4.50752,-2.80487 5.25,-2.80487 0.74248,0 1.34996,-0.45 1.34996,-1 0,-0.55 -1.66288,-1 -3.69528,-1 -4.15475,0 -9.30472,4.01057 -9.30472,7.24611 0,2.06507 0.28583,1.95605 6.40004,-2.44124 z M 84.5,111.35655 l 6,-3.12908 -0.33186,-5.86374 L 89.836281,96.5 83.734088,92.808008 77.631896,89.116016 74.281152,92.058008 C 72.438242,93.676103 70.271066,95 69.465204,95 68.318077,95 68,96.516696 68,101.98658 c 0,6.93696 0.02308,6.99623 3.25,8.3451 1.7875,0.74718 3.880038,2.11821 4.650085,3.04672 0.770047,0.92852 1.670047,1.55749 2,1.39772 C 78.230038,114.61635 81.2,113.07755 84.5,111.35655 Z m 49.56782,2.06173 c 0.72199,-0.86995 2.85636,-2.33245 4.74305,-3.25 3.34131,-1.62499 3.43369,-1.8317 3.55973,-7.96539 l 0.1294,-6.297117 -5.51768,-3.063382 -5.51767,-3.063381 -5.90139,3.474689 -5.90138,3.474688 -0.0809,5.564413 -0.0809,5.56442 6,3.52291 c 7.01454,4.11861 6.86978,4.08417 8.56782,2.03815 z M 101.02144,97.367114 c 4.14335,-2.741938 5.24463,-5.383201 2.22856,-5.344878 -2.40538,0.03056 -5.89714,3.010789 -6.710888,5.727764 -0.859261,2.86893 -0.368105,2.82698 4.482328,-0.382886 z M 96.595138,89.5 C 98.621314,88.125 100.8913,87 101.63955,87 102.65541,87 103,85.251766 103,80.097825 c 0,-6.627989 -0.10924,-6.940681 -2.75,-7.871507 -1.5125,-0.533133 -3.831928,-1.852517 -5.154283,-2.931965 l -2.404284,-1.962634 -5.595716,3.309042 c -3.077645,1.819973 -6.104405,3.657836 -6.726134,4.08414 -0.735266,0.504154 -0.910047,2.489485 -0.5,5.679486 0.611866,4.760064 0.806981,5.002489 6.630417,8.238077 3.3,1.833529 6.092516,3.339055 6.205591,3.345613 0.113075,0.0066 1.863371,-1.113077 3.889547,-2.488077 z m 27.333192,-1.116876 c 6.05545,-3.607214 6.07153,-3.62925 6.02081,-8.25 -0.0504,-4.589374 -0.11268,-4.673309 -6.59903,-8.888684 l -6.54818,-4.25556 -2.89557,2.43646 c -1.59256,1.340053 -3.83914,2.735936 -4.99239,3.101963 -1.55821,0.494558 -1.9484,1.218692 -1.51905,2.819101 0.31778,1.184478 0.58392,4.285057 0.59143,6.890176 0.0128,4.430446 0.23197,4.827801 3.39157,6.147966 1.85786,0.776263 3.68442,1.907302 4.05902,2.51342 1.03041,1.667238 1.90645,1.407786 8.49139,-2.514842 z M 62.613162,85 c 1.356583,0 4.192867,-0.88072 6.302855,-1.957155 2.109987,-1.076435 4.061467,-1.732027 4.336623,-1.456872 1.430219,1.430219 1.373987,-2.823825 -0.07569,-5.726243 C 71.214424,71.93054 66.899309,69.557472 63.34104,70.45054 59.710153,71.361835 56,75.78162 56,79.195683 56,82.889355 59.220574,89.337565 59.773022,86.75 60.006309,85.657322 61.073102,85 62.613162,85 Z M 142.25,74.748163 C 146.40297,71.518566 146.9872,70 144.07673,70 141.39198,70 136,74.77191 136,77.147911 c 0,2.225996 0.59595,1.997176 6.25,-2.399748 z M 101.27216,53.927196 C 105.60009,50.359745 105.96347,49 102.58889,49 c -1.46474,0 -3.427252,1.207625 -4.999996,3.076725 -4.74134,5.634763 -2.35948,6.831409 3.683266,1.850471 z m 83.74808,123.551254 2.36888,-2.52155 -5.4104,-5.47845 C 179.003,166.4653 176.30007,164 175.97222,164 c -0.32786,0 -1.62941,1.39762 -2.89234,3.10582 l -2.29623,3.10583 4.82058,4.89417 c 2.65132,2.6918 5.32156,4.89418 5.93386,4.89418 0.61231,0 2.17927,-1.1347 3.48215,-2.52155 z"
         id="path7" />
      <path
         style="display:inline;fill:#6b979c"
         d="m 222.5,241.83529 c -1.65,-0.60284 -6.6,-4.54108 -11,-8.75166 -4.4,-4.21057 -15.29974,-14.32391 -24.22164,-22.4741 l -16.22165,-14.81852 1.53557,-2.96945 1.53556,-2.96946 -6.70841,-6.17605 c -3.68963,-3.39683 -7.08007,-6.32161 -7.53432,-6.49952 -0.45425,-0.1779 -2.30173,0.78324 -4.10551,2.13588 -4.79663,3.59696 -16.63856,8.49495 -27.64535,11.43453 -8.17285,2.18271 -11.75788,2.573 -23.63425,2.573 -11.854024,0 -15.466902,-0.39189 -23.569829,-2.55666 C 40.270176,179.90058 13.071771,146.40379 11.292933,105 10.815144,93.879089 11.038835,91.331471 13.320459,81.908504 14.73097,76.083181 17.044292,68.695697 18.461175,65.491874 24.897551,50.938084 39.597182,33.716 52.799272,25.261368 70.867715,13.690317 95.434983,8.159573 116.5,10.920643 137.11363,13.622548 155.3843,22.618219 170.48404,37.5 c 25.53907,25.170436 33.95962,58.040339 23.49643,91.71911 -3.65858,11.7762 -6.38336,17.53537 -11.41511,24.12733 -1.96095,2.56897 -3.56536,5.01134 -3.56536,5.42749 0,0.41614 2.71305,3.60775 6.029,7.09247 4.73376,4.9747 6.50615,6.22713 8.25,5.82974 1.22155,-0.27837 2.96178,-0.21138 3.86717,0.14887 0.90539,0.36024 11.5662,10.24235 23.69068,21.96024 23.81263,23.01407 24.78513,24.36986 23.92219,33.3507 -0.51648,5.37503 -4.44696,11.36399 -8.89204,13.549 -3.71279,1.82503 -10.00844,2.35741 -13.367,1.13034 z M 237.8,230.8 c 1.80459,-1.80459 1.45601,-9.89561 -0.55659,-12.91909 -2.2175,-3.3313 -40.73939,-40.89365 -41.88672,-40.84336 -1.40738,0.0617 -8.12002,6.20793 -10.85665,9.9406 -2.06409,2.81536 -2.26906,3.57759 -1.07562,4 0.81091,0.28702 10.0855,8.84685 20.61019,19.02185 10.5247,10.175 19.65997,18.54461 20.3006,18.59914 0.64063,0.0545 2.73979,0.82442 4.66479,1.71086 4.21664,1.94172 7.1831,2.1069 8.8,0.49 z M 131,179.17163 c 12.08085,-3.97149 20.36447,-8.87465 29.72838,-17.59654 14.52083,-13.52523 22.63438,-29.37957 25.62623,-50.07509 0.93913,-6.49629 1.50681,-8.37407 2.04062,-6.75 0.84325,2.56552 2.60477,3.03281 2.60477,0.69098 0,-0.85746 0.45,-1.2809 1,-0.94098 2.96142,1.83026 -0.26977,-21.857545 -4.52286,-33.156955 C 179.30763,49.638637 158.74131,29.083528 137,20.893409 103.52241,8.2821412 65.556388,16.272386 40.954363,41.10696 32.423903,49.718055 27.196982,57.065798 23.037186,66.294028 11.46308,91.970416 14.360791,126.79895 29.83507,148 c 3.771974,5.16792 3.831247,5.21865 3.835705,3.28333 0.0023,-0.98083 -0.709533,-2.30904 -1.581761,-2.95157 -0.872228,-0.64253 -1.307409,-1.4467 -0.967069,-1.78704 0.340341,-0.34034 3.708883,2.58197 7.485649,6.49402 12.182136,12.6185 23.662015,20.38147 37.392406,25.28563 11.833963,4.2268 14.572098,4.61114 30.5,4.28111 13.63594,-0.28254 15.8639,-0.5948 24.5,-3.43385 z M 91.869528,178.994 C 62.040393,174.26721 37.517306,153.37525 27.821127,124.42926 25.788231,118.36046 25.501301,115.57525 25.510473,102 25.520134,87.70198 25.732001,85.901511 28.242579,78.782254 36.836198,54.41328 52.869962,37.98181 76.5,29.327839 c 9.424968,-3.451683 10.833797,-3.687158 24.5,-4.095003 16.4885,-0.49207 22.7022,0.388467 33.74744,4.782321 9.68561,3.852979 16.94208,8.591344 25.11973,16.402798 24.30671,23.218249 30.77789,57.379415 16.57395,87.493295 -10.6867,22.65696 -28.03871,36.71979 -53.27095,43.17311 -8.81188,2.25369 -23.481495,3.14869 -31.300642,1.90964 z m 27.456972,-5.42945 c 18.73469,-3.58454 35.96873,-14.45277 45.89516,-28.94266 C 174.44463,131.15887 179,117.01639 179,101.84607 179,82.010351 172.24194,66.121963 157.55999,51.440012 142.21612,36.096144 126.8308,29.814171 104.5,29.775116 84.246917,29.739694 68.348158,35.677949 54.252525,48.542765 37.158696,64.143978 28.944022,84.169513 30.298826,106.93652 c 0.893151,15.00907 5.348391,26.78237 14.96915,39.55707 16.292627,21.63377 45.904094,32.45779 74.058524,27.07096 z M 95.801371,157.9878 c -4.091301,-3.37239 -6.27303,-8.62917 -5.539034,-13.34605 0.459841,-2.95508 0.09522,-3.39083 -6.136724,-7.33393 L 77.5,133.11564 l -2.748983,2.6283 c -2.165975,2.07088 -3.994996,2.71842 -8.624157,3.05326 -5.628989,0.40717 -6.047757,0.26906 -9.99378,-3.29594 -2.35606,-2.12855 -4.5904,-5.29562 -5.221066,-7.40059 -2.114368,-7.05714 2.159091,-15.30033 9.337986,-18.0123 2.632813,-0.9946 2.748456,-1.32756 2.713762,-7.81362 L 62.927525,95.5 58.713762,93.5 C 50.312659,89.51254 47.784545,78.904461 53.461558,71.461513 59.333371,63.76317 68.443644,62.98744 76,69.542391 c 1.259248,1.092366 2.535772,0.677406 7.953362,-2.585406 l 6.453363,-3.886618 -0.264242,-4.296961 C 89.649963,50.764296 96.757694,43.450395 104.91761,43.569702 113.32817,43.692674 119,49.635354 119,58.324569 c 0,4.38405 0.0601,4.460509 6.67627,8.490233 l 6.67627,4.066344 2.85317,-2.400782 c 7.03132,-5.916468 18.06289,-3.66298 22.31427,4.558272 1.74118,3.36708 1.91821,9.405939 0.40312,13.752103 C 156.77583,90.081811 151.1704,95 148.56672,95 147.29627,95 147,96.300768 147,101.87868 c 0,6.70251 0.077,6.91055 3.0046,8.12323 1.65253,0.6845 4.35253,2.77975 6,4.65611 2.47547,2.8194 2.9954,4.28204 2.9954,8.42644 0,14.27607 -14.19872,21.15072 -24.5,11.86225 -1.94414,-1.75299 -2.18822,-1.68666 -8.73922,2.37497 -6.62084,4.10492 -6.73941,4.25385 -6.75,8.47798 -0.013,5.18715 -1.88197,9.07272 -6.05159,12.58122 -4.63954,3.90392 -12.15366,3.73178 -17.157819,-0.39308 z m 13.218649,-3.49815 C 112.62584,152.625 114,150.17796 114,145.62151 c 0,-4.96052 -3.40027,-8.59725 -8.70329,-9.30854 -3.72326,-0.49939 -4.54628,-0.21724 -7.248439,2.48491 -4.744756,4.74476 -3.719853,12.60209 2.061799,15.80661 3.15006,1.74595 5.36683,1.71737 8.90995,-0.11484 z M 99.793019,131.92231 C 102.97792,130.81205 103,130.75758 103,124.01058 c 0,-6.57925 -0.0868,-6.81532 -2.75,-7.4763 -1.5125,-0.3754 -3.704106,-1.57276 -4.870235,-2.66082 l -2.120236,-1.97827 -6.629764,3.64417 L 80,119.18354 v 4.81705 4.81706 l 6.25,3.9854 c 6.149976,3.92163 6.282696,3.95542 8.293019,2.11132 1.123661,-1.03076 3.486161,-2.37718 5.25,-2.99206 z m 21.153231,2.73784 c 1.95456,-1.28692 4.79125,-3.0973 6.30375,-4.02306 2.40617,-1.47275 2.75,-2.30546 2.75,-6.66014 C 130,121.23963 129.54308,119 128.98462,119 c -0.55847,0 -3.42591,-1.6005 -6.3721,-3.55666 l -5.35672,-3.55666 -3.76745,2.55666 C 111.41626,115.8495 109.18132,117 108.52184,117 c -0.84085,0 -1.13286,2.13343 -0.97742,7.14114 0.21191,6.82752 0.34758,7.19409 3.089,8.34677 1.57705,0.6631 3.48478,1.94959 4.23941,2.85886 1.75177,2.11075 1.83992,2.10079 6.07342,-0.68662 z M 150.6,130.6 c 3.77956,-3.77956 4.2974,-6.96394 1.88965,-11.62002 -2.9779,-5.75862 -10.35272,-6.8799 -14.66691,-2.22998 -4.63187,4.99233 -4.3567,9.99711 0.8131,14.78831 3.82479,3.5447 7.79231,3.23354 11.96416,-0.93831 z m -3.73519,-3.13914 c 4.22709,-1.83523 4.68602,-1.8295 3.13519,0.0391 -0.68469,0.825 -2.42729,1.48239 -3.87244,1.46086 -2.5163,-0.0375 -2.48509,-0.101 0.73725,-1.5 z m -77.209363,-2.53611 c 4.664167,-2.25789 4.976273,-2.87013 3.18121,-6.24049 -1.740399,-3.26772 -3.963077,-4.61708 -7.66358,-4.65246 C 60.559871,113.9877 56,118.57544 56,123.26094 c 0,3.37217 0.05811,3.41699 4.655447,3.59088 2.994589,0.11327 6.205391,-0.57422 9,-1.92707 z M 84.5,111.35655 l 6,-3.12908 -0.33186,-5.86374 L 89.836281,96.5 83.734088,92.808008 77.631896,89.116016 74.281152,92.058008 C 72.438242,93.676103 70.271066,95 69.465204,95 68.318077,95 68,96.516696 68,101.98658 c 0,6.93696 0.02308,6.99623 3.25,8.3451 1.7875,0.74718 3.880038,2.11821 4.650085,3.04672 0.770047,0.92852 1.670047,1.55749 2,1.39772 C 78.230038,114.61635 81.2,113.07755 84.5,111.35655 Z m 49.56782,2.06173 c 0.72199,-0.86995 2.85636,-2.33245 4.74305,-3.25 3.34131,-1.62499 3.43369,-1.8317 3.55973,-7.96539 l 0.1294,-6.297117 -5.51768,-3.063382 -5.51767,-3.063381 -5.90139,3.474689 -5.90138,3.474688 -0.0809,5.564413 -0.0809,5.56442 6,3.52291 c 7.01454,4.11861 6.86978,4.08417 8.56782,2.03815 z M 102.75,97.300567 C 106.69906,95.270151 107.19617,92 103.55576,92 c -3.16635,0 -7.178535,3.709561 -8.016169,7.411543 -0.65282,2.885187 -0.637874,2.896367 1.650812,1.235777 1.270278,-0.921668 3.772097,-2.427707 5.559597,-3.346753 z M 96.595138,89.5 C 98.621314,88.125 100.8913,87 101.63955,87 102.65541,87 103,85.251766 103,80.097825 c 0,-6.627989 -0.10924,-6.940681 -2.75,-7.871507 -1.5125,-0.533133 -3.831928,-1.852517 -5.154283,-2.931965 l -2.404284,-1.962634 -5.595716,3.309042 c -3.077645,1.819973 -6.104405,3.657836 -6.726134,4.08414 -0.735266,0.504154 -0.910047,2.489485 -0.5,5.679486 0.611866,4.760064 0.806981,5.002489 6.630417,8.238077 3.3,1.833529 6.092516,3.339055 6.205591,3.345613 0.113075,0.0066 1.863371,-1.113077 3.889547,-2.488077 z m 27.333192,-1.116876 c 6.05545,-3.607214 6.07153,-3.62925 6.02081,-8.25 -0.0504,-4.589374 -0.11268,-4.673309 -6.59903,-8.888684 l -6.54818,-4.25556 -2.89557,2.43646 c -1.59256,1.340053 -3.83914,2.735936 -4.99239,3.101963 -1.55821,0.494558 -1.9484,1.218692 -1.51905,2.819101 0.31778,1.184478 0.58392,4.285057 0.59143,6.890176 0.0128,4.430446 0.23197,4.827801 3.39157,6.147966 1.85786,0.776263 3.68442,1.907302 4.05902,2.51342 1.03041,1.667238 1.90645,1.407786 8.49139,-2.514842 z M 62.613162,85 c 1.356583,0 4.192867,-0.88072 6.302855,-1.957155 2.109987,-1.076435 4.061467,-1.732027 4.336623,-1.456872 1.430219,1.430219 1.373987,-2.823825 -0.07569,-5.726243 C 71.214424,71.93054 66.899309,69.557472 63.34104,70.45054 59.710153,71.361835 56,75.78162 56,79.195683 56,82.889355 59.220574,89.337565 59.773022,86.75 60.006309,85.657322 61.073102,85 62.613162,85 Z m 79.472108,-8.73352 c 3.42539,-2.772745 5.47828,-5.102926 4.95591,-5.625304 -1.5854,-1.585398 -7.86385,0.317927 -9.99785,3.030867 C 135.15313,76.075042 134.19573,81 135.61879,81 c 0.34033,0 3.25025,-2.130084 6.46648,-4.73352 z M 101.75,54.101332 c 4.94163,-3.801441 5.32995,-5.113821 1.5,-5.069529 -3.1554,0.03649 -5.420028,1.523241 -7.086657,4.652456 -1.598119,3.000581 -1.544778,5.846579 0.08666,4.623547 0.6875,-0.515396 3.1625,-2.408309 5.499997,-4.206474 z m 83.27024,123.377118 2.36888,-2.52155 -5.4104,-5.47845 C 179.003,166.4653 176.30007,164 175.97222,164 c -0.32786,0 -1.62941,1.39762 -2.89234,3.10582 l -2.29623,3.10583 4.82058,4.89417 c 2.65132,2.6918 5.32156,4.89418 5.93386,4.89418 0.61231,0 2.17927,-1.1347 3.48215,-2.52155 z"
         id="path6" />
      <path
         style="display:inline;fill:#d35640"
         d="m 221,241.27932 c -0.825,-0.30953 -5.32898,-4.2115 -10.00885,-8.67105 -4.67987,-4.45955 -15.36737,-14.3617 -23.75,-22.00478 C 178.85852,202.96042 172,196.09181 172,195.33992 c 0,-0.75188 0.56047,-2.26452 1.24549,-3.36141 1.12657,-1.80393 0.52982,-2.65253 -6.25,-8.88777 -7.3133,-6.72586 -7.5441,-6.84988 -9.49549,-5.10239 -4.91537,4.40179 -20.57697,10.63815 -33.97137,13.52721 -11.05926,2.38539 -33.813106,1.63775 -44.46136,-1.46091 C 46.068298,180.45189 22.37171,156.40834 13.965344,123.9995 10.693806,111.38682 10.674009,91.794926 13.920378,79.5 23.916748,41.640903 55.13095,15.450893 95.639974,10.933869 c 13.681686,-1.5255983 30.498796,0.809551 43.555506,6.047925 30.75755,12.339976 52.9787,39.623822 57.88875,71.077683 2.36697,15.162813 -0.24024,35.184323 -6.62259,50.856803 -2.68639,6.59669 -8.45694,16.34474 -10.37866,17.53244 -2.08173,1.28658 -1.03857,3.3074 4.85563,9.40636 5.20498,5.38581 6.40944,6.1487 9.75,6.17556 3.60712,0.029 5.02728,1.22147 26.49812,22.25 21.75536,21.30718 22.71341,22.40702 23.33671,26.79046 1.16879,8.21956 -2.36366,16.24355 -8.56208,19.44888 -2.77655,1.43581 -11.9213,1.89994 -14.96136,0.75934 z M 237.8,230.8 c 0.66,-0.66 1.2,-3.65776 1.2,-6.66169 v -5.46169 l -21.25,-20.81909 c -11.6875,-11.4505 -21.63053,-20.82774 -22.09563,-20.83831 -1.75036,-0.0398 -6.80683,4.30043 -10.22401,8.77577 -2.80427,3.67265 -3.22878,4.75052 -2.03703,5.17225 0.82801,0.29302 10.11659,8.85776 20.64128,19.03276 10.5247,10.175 19.65997,18.54461 20.3006,18.59914 0.64063,0.0545 2.73979,0.82442 4.66479,1.71086 4.21664,1.94172 7.1831,2.1069 8.8,0.49 z M 109,186.5 c 0,-1.08333 -1.11111,-1.5 -4,-1.5 -2.2,0 -4,0.42149 -4,0.93664 0,0.51515 -1.4625,1.11814 -3.25,1.33996 -1.7875,0.22183 0.0125,0.47534 4,0.56336 5.84891,0.12911 7.25,-0.12984 7.25,-1.33996 z m 3.72917,0.89583 c -0.3323,-0.33229 -1.1948,-0.36781 -1.91667,-0.0789 -0.79773,0.31922 -0.56078,0.55618 0.60417,0.60416 1.05416,0.0434 1.64479,-0.19293 1.3125,-0.52522 z m 16.52624,-2.80082 c 14.34766,-3.94743 29.3515,-12.11269 36.60908,-19.92306 2.28511,-2.45916 2.2935,-2.52603 0.25,-1.99164 -1.16297,0.30412 -2.12138,1.06297 -2.1298,1.68632 -0.009,0.63661 -0.41044,0.50905 -0.91681,-0.29103 -0.72391,-1.14382 -2.18932,-0.45436 -7.43904,3.5 -3.59566,2.70842 -6.55809,5.68534 -6.5832,6.61538 -0.0565,2.09265 -0.64622,2.46457 -5.04564,3.18199 -1.925,0.31392 -6.2,1.31261 -9.5,2.21932 -9.87571,2.71347 -11.46756,2.69052 -3.67768,-0.053 8.74839,-3.08112 15.89785,-6.61425 21.53389,-10.64167 6.81251,-4.86809 17.55343,-16.0068 21.37129,-22.16276 1.96652,-3.17084 3.78366,-5.55701 4.03808,-5.30259 0.25442,0.25442 -1.61948,3.44099 -4.16421,7.08126 -3.01511,4.31316 -4.3554,7.1036 -3.84771,8.0108 1.07386,1.91889 7.24634,-2.89876 7.24634,-5.65579 0,-1.0926 0.36912,-1.75842 0.82027,-1.47959 1.12076,0.69267 6.4234,-8.47338 9.48113,-16.38892 4.39115,-11.36737 6.00886,-22.02274 5.38962,-35.5 C 192.0393,83.315546 190.38948,76.639433 184.536,64.5 173.29834,41.194418 151.67022,23.781567 126,17.372515 114.84395,14.587198 91.429242,14.819596 80.55398,17.82358 50.133029,26.226509 25.859981,50.387253 18.435761,79.654396 15.50397,91.21186 15.09678,109.47595 17.536275,120 c 2.767035,11.93707 8.59684,24.31235 15.660253,33.24297 2.646792,3.34647 3.121164,3.5822 4.478077,2.22528 1.356914,-1.35691 2.171647,-0.90596 7.691081,4.25703 11.184617,10.46232 23.12896,17.15041 38.345812,21.47129 6.260942,1.77782 10.419824,2.21562 21.204702,2.2322 7.37891,0.0113 12.32891,0.32466 11,0.69625 -2.07902,0.58134 -1.92777,0.69167 1.0838,0.79061 2.64808,0.087 3.13489,0.35095 2,1.08437 -2.58984,1.67368 0.7072,1.22199 10.25541,-1.40499 z M 119.75,182.33772 c 0.6875,-0.27741 1.8125,-0.27741 2.5,0 0.6875,0.27741 0.125,0.50439 -1.25,0.50439 -1.375,0 -1.9375,-0.22698 -1.25,-0.50439 z M 94.5,178.88213 C 64.910011,175.88026 38.028995,154.11223 28.433567,125.38208 24.856081,114.67056 23.990592,97.73632 26.440722,86.389904 28.505334,76.8288 36.198191,60.617963 42.32547,52.916637 50.307574,42.883998 66.172006,32.52025 80.5,27.978385 c 8.776706,-2.78215 31.15486,-3.890547 40.75839,-2.018777 34.75971,6.774821 62.68292,40.006048 62.73406,74.659402 0.0205,13.90874 -5.2166,31.22894 -13.15784,43.51559 -15.57456,24.09687 -45.78158,37.84711 -76.33461,34.74753 z m 33,-7.27566 c 12.38891,-4.01997 21.93928,-9.82545 30.68378,-18.65206 6.34133,-6.40088 8.56388,-9.56406 12.72124,-18.10517 6.0824,-12.49601 8.30471,-21.38586 8.33674,-33.34924 0.0716,-26.717082 -15.967,-52.139535 -40.49481,-64.187719 C 99.568643,18.067705 54.368396,33.933946 35.892312,73.416428 31.370733,83.07882 29.740189,92.556464 30.286599,106 c 0.641777,15.78989 4.814001,27.09334 14.93805,40.4704 9.468965,12.51149 24.361016,22.19688 40.775351,26.5192 10.985802,2.89285 30.30662,2.24892 41.5,-1.38313 z m -30.602117,-12.8764 c -4.585464,-3.06329 -7.115186,-8.15939 -6.596789,-13.28917 0.408934,-4.0466 0.389938,-4.07171 -6.167036,-8.15244 l -6.577233,-4.09334 -2.855484,2.40273 c -10.822186,9.10627 -27.451525,-1.67073 -23.755834,-15.39548 1.134789,-4.21428 5.101683,-8.5263 9.304493,-10.114 2.858877,-1.08 2.77023,-0.74339 3.178571,-12.069589 0.04971,-1.378863 -1.296718,-2.671002 -4.428571,-4.25 -3.395536,-1.711939 -5.074965,-3.427743 -6.842621,-6.990826 -2.921722,-5.889346 -2.322256,-10.909069 1.916958,-16.051972 5.189346,-6.295576 12.999538,-7.200925 20.166015,-2.337623 l 3.44151,2.335472 6.37347,-3.833372 c 6.250996,-3.759708 6.368,-3.909129 6.088823,-7.775734 -0.335966,-4.653115 1.646409,-8.919266 5.748457,-12.370911 4.327418,-3.641285 9.159328,-4.256776 14.583068,-1.857598 5.61387,2.483284 8.5155,6.971697 8.52058,13.180164 0.004,4.531898 0.0533,4.597985 6.56842,8.751556 l 6.56468,4.185175 3.4417,-2.625112 c 6.90835,-5.269254 16.33509,-3.701078 21.15901,3.519883 5.14313,7.698803 0.96157,20.390166 -7.48007,22.702589 -2.05109,0.561855 -2.25,1.21488 -2.25,7.386618 0,6.58202 0.0836,6.80487 3.0046,8.01482 1.65253,0.6845 4.35253,2.77975 6,4.65611 6.96867,7.93688 1.55556,22.65239 -8.84591,24.04752 -5.18824,0.69589 -8.30999,-0.12053 -11.84968,-3.09898 l -2.84514,-2.39403 -6.73193,4.01196 C 119.039,141.21321 119,141.26213 119,145.66789 c 0,5.30818 -1.83822,9.17675 -6.04081,12.71299 -4.13363,3.47822 -11.14911,3.63074 -16.061307,0.34919 z m 12.122137,-4.24042 C 112.62584,152.625 114,150.17796 114,145.62151 c 0,-4.96052 -3.40027,-8.59725 -8.70329,-9.30854 -3.72326,-0.49939 -4.54628,-0.21724 -7.248439,2.48491 -4.744756,4.74476 -3.719853,12.60209 2.061799,15.80661 3.15006,1.74595 5.36683,1.71737 8.90995,-0.11484 z M 94.709121,135.09416 c 0.654618,-1.04821 2.787864,-2.43311 4.740547,-3.07755 L 103,130.8449 v -6.82463 c 0,-6.77196 -0.0246,-6.83319 -3.185066,-7.93494 -1.751786,-0.61068 -3.943104,-1.79634 -4.869596,-2.6348 -1.525195,-1.38028 -2.335326,-1.16628 -8.564934,2.2625 L 79.5,119.5 80,124.30607 c 0.478303,4.59752 0.760362,4.97487 6.5,8.69609 3.3,2.1395 6.229254,3.91427 6.509453,3.94393 0.280199,0.0297 1.04505,-0.80372 1.699668,-1.85193 z m 29.619729,-2.52783 c 5.59754,-3.5807 5.67063,-3.68904 5.63119,-8.34706 l -0.04,-4.71927 -6.54838,-3.82503 c -5.99886,-3.50405 -6.69328,-3.69391 -8.27497,-2.2625 -0.94962,0.8594 -3.15987,2.06218 -4.91165,2.67286 -3.1644,1.10312 -3.18507,1.15502 -3.18507,7.99908 0,6.82659 0.0293,6.90101 3.25,8.24727 1.7875,0.74718 3.8846,2.1237 4.66021,3.05892 1.66481,2.0074 2.04264,1.8941 9.41864,-2.82427 z m -52.066165,-1.66236 c 3.730702,-4.56498 3.430653,-10.30154 -0.757898,-14.49009 -3.33087,-3.33087 -9.242325,-3.31323 -12.858764,0.0384 -4.807421,4.45537 -3.263736,14.0718 2.662274,16.58472 3.308329,1.40289 8.96482,0.30148 10.954388,-2.133 z M 150.6,130.6 c 3.77956,-3.77956 4.2974,-6.96394 1.88965,-11.62002 -2.9779,-5.75862 -10.35272,-6.8799 -14.66691,-2.22998 -4.63187,4.99233 -4.3567,9.99711 0.8131,14.78831 3.82479,3.5447 7.79231,3.23354 11.96416,-0.93831 z m -3.73519,-3.13914 c 4.22709,-1.83523 4.68602,-1.8295 3.13519,0.0391 -0.68469,0.825 -2.42729,1.48239 -3.87244,1.46086 -2.5163,-0.0375 -2.48509,-0.101 0.73725,-1.5 z M 84.5,111.35655 l 6,-3.12908 -0.33186,-5.86374 L 89.836281,96.5 83.734088,92.808008 77.631896,89.116016 74.281152,92.058008 C 72.438242,93.676103 70.271066,95 69.465204,95 68.318215,95 68,96.515856 68,101.97968 v 6.97967 l 3.932151,2.00604 c 2.162684,1.10331 4.228922,2.48621 4.591641,3.07311 0.362719,0.58689 0.955751,0.92759 1.317849,0.7571 C 78.203738,114.62512 81.2,113.07755 84.5,111.35655 Z m 49.96593,1.6811 c 0.97675,-1.0793 3.29649,-2.4642 5.15499,-3.07756 3.37077,-1.11245 3.37908,-1.13093 3.37908,-7.51732 0,-6.370311 -0.0186,-6.412213 -3.75,-8.432919 -2.0625,-1.116938 -4.51943,-2.574881 -5.45984,-3.239874 -1.4133,-0.999391 -2.80632,-0.62323 -8.03236,2.168997 l -6.32253,3.378074 0.0324,5.768322 0.0324,5.76832 6,3.52468 c 3.3,1.93857 6.26776,3.54649 6.59501,3.57315 0.32726,0.0267 1.39417,-0.83458 2.37092,-1.91387 z M 102.75,97.300567 C 106.69906,95.270151 107.19617,92 103.55576,92 c -3.16635,0 -7.178535,3.709561 -8.016169,7.411543 -0.65282,2.885187 -0.637874,2.896367 1.650812,1.235777 1.270278,-0.921668 3.772097,-2.427707 5.559597,-3.346753 z m 27.2328,-17.162264 c -0.0171,-4.61728 -0.0473,-4.657685 -6.65758,-8.91458 -6.62645,-4.267312 -6.64476,-4.272169 -8.7328,-2.316613 -1.15083,1.077816 -3.30475,2.418934 -4.78649,2.980264 -2.61675,0.991306 -2.68359,1.215649 -2.32864,7.816612 0.35448,6.592045 0.46714,6.846084 3.75381,8.464294 1.8636,0.917554 3.95133,2.346613 4.6394,3.175686 1.09045,1.313907 2.07761,0.989145 7.69027,-2.529977 6.42067,-4.025746 6.43918,-4.050754 6.42203,-8.675686 z M 96.595138,89.5 C 98.621314,88.125 100.8913,87 101.63955,87 102.65599,87 103,85.246997 103,80.067388 c 0,-6.321307 -0.1984,-6.99255 -2.25,-7.612345 -1.2375,-0.373852 -3.438622,-1.79154 -4.891382,-3.150416 l -2.641382,-2.470684 -6.876978,4.101926 -6.876977,4.101926 0.17216,5.168146 0.17216,5.168146 6.346199,3.264436 c 3.49041,1.79544 6.438716,3.28627 6.551791,3.312956 C 92.818666,91.978166 94.568962,90.875 96.595138,89.5 Z M 70.055391,88.970356 C 72.51312,87.655019 75,82.866607 75,79.44966 c 0,-1.698647 -1.26574,-3.9154 -3.526536,-6.176196 -3.129111,-3.129111 -3.946154,-3.459733 -7.25,-2.933761 -8.59338,1.368066 -11.320401,12.996172 -4.310121,18.378494 1.954393,1.500535 7.549507,1.639644 10.142048,0.252159 z M 142.08527,76.26648 c 3.42539,-2.772745 5.47828,-5.102926 4.95591,-5.625304 -1.5854,-1.585398 -7.86385,0.317927 -9.99785,3.030867 C 135.15313,76.075042 134.19573,81 135.61879,81 c 0.34033,0 3.25025,-2.130084 6.46648,-4.73352 z M 101.75,54.101332 c 4.94163,-3.801441 5.32995,-5.113821 1.5,-5.069529 -3.1554,0.03649 -5.420028,1.523241 -7.086657,4.652456 -1.598119,3.000581 -1.544778,5.846579 0.08666,4.623547 0.6875,-0.515396 3.1625,-2.408309 5.499997,-4.206474 z M 179.07087,137.5 c 0,-0.55 0.64311,-2.125 1.42913,-3.5 0.78602,-1.375 1.42913,-2.05 1.42913,-1.5 0,0.55 -0.64311,2.125 -1.42913,3.5 -0.78602,1.375 -1.42913,2.05 -1.42913,1.5 z m -0.67157,45.90183 c 0.62449,-1.62741 -3.01824,-6.70702 -5.1061,-7.12021 -2.30101,-0.45537 -2.10893,2.78392 0.33747,5.6913 2.88134,3.42429 3.88726,3.72571 4.76863,1.42891 z m 3.36907,-14.11172 -5.70153,-5.70153 -2.53342,2.38002 C 172.14004,167.27762 171,169.03903 171,169.88286 c 0,0.84382 2.30833,3.7359 5.12961,6.42684 l 5.12961,4.89261 3.10534,-3.10533 3.10534,-3.10534 z M 167,174 c 0,-0.55 -0.47656,-1 -1.05902,-1 -0.58246,0 -0.7809,0.45 -0.44098,1 0.33992,0.55 0.81648,1 1.05902,1 0.24254,0 0.44098,-0.45 0.44098,-1 z m 3.28571,-13.61905 c 0.9519,-0.95189 -2.12844,-3.59618 -3.3266,-2.85568 -0.72795,0.4499 -0.69227,1.09132 0.11478,2.06376 1.26675,1.52634 2.23794,1.76581 3.21182,0.79192 z"
         id="path5" />
      <path
         style="display:inline;fill:#647b83"
         d="m 221,241.27932 c -0.825,-0.30953 -5.32898,-4.2115 -10.00885,-8.67105 -4.67987,-4.45955 -15.36737,-14.3617 -23.75,-22.00478 C 178.85852,202.96042 172,196.09181 172,195.33992 c 0,-0.75188 0.56047,-2.26452 1.24549,-3.36141 1.12657,-1.80393 0.52982,-2.65253 -6.25,-8.88777 -7.3133,-6.72586 -7.5441,-6.84988 -9.49549,-5.10239 -4.91537,4.40179 -20.57697,10.63815 -33.97137,13.52721 -11.05926,2.38539 -33.813106,1.63775 -44.46136,-1.46091 C 46.068298,180.45189 22.37171,156.40834 13.965344,123.9995 10.693806,111.38682 10.674009,91.794926 13.920378,79.5 23.916748,41.640903 55.13095,15.450893 95.639974,10.933869 c 13.681686,-1.5255983 30.498796,0.809551 43.555506,6.047925 30.75755,12.339976 52.9787,39.623822 57.88875,71.077683 2.36697,15.162813 -0.24024,35.184323 -6.62259,50.856803 -2.68639,6.59669 -8.45694,16.34474 -10.37866,17.53244 -2.08173,1.28658 -1.03857,3.3074 4.85563,9.40636 5.20498,5.38581 6.40944,6.1487 9.75,6.17556 3.60712,0.029 5.02728,1.22147 26.49812,22.25 21.75536,21.30718 22.71341,22.40702 23.33671,26.79046 1.16879,8.21956 -2.36366,16.24355 -8.56208,19.44888 -2.77655,1.43581 -11.9213,1.89994 -14.96136,0.75934 z m 12.80655,-6.30275 c 4.09914,-2.49919 5.87953,-6.53905 5.35989,-12.1621 -0.38229,-4.13686 -1.26869,-5.16786 -21.53257,-25.04525 -11.62363,-11.40193 -21.5144,-20.73943 -21.9795,-20.75 -1.98767,-0.0452 -7.19441,4.70897 -11.36486,10.37699 -2.47011,3.35708 -4.89972,6.35781 -5.39915,6.66827 -0.49942,0.31047 7.51481,8.41047 17.80941,18 10.29461,9.58954 19.61186,18.33552 20.70501,19.43552 5.8246,5.86109 10.77102,6.90955 16.40177,3.47657 z M 109,186.5 c 0,-1.08333 -1.11111,-1.5 -4,-1.5 -2.2,0 -4,0.42149 -4,0.93664 0,0.51515 -1.4625,1.11814 -3.25,1.33996 -1.7875,0.22183 0.0125,0.47534 4,0.56336 5.84891,0.12911 7.25,-0.12984 7.25,-1.33996 z m 3.72917,0.89583 c -0.3323,-0.33229 -1.1948,-0.36781 -1.91667,-0.0789 -0.79773,0.31922 -0.56078,0.55618 0.60417,0.60416 1.05416,0.0434 1.64479,-0.19293 1.3125,-0.52522 z m 16.52624,-2.80082 c 14.34766,-3.94743 29.3515,-12.11269 36.60908,-19.92306 2.28511,-2.45916 2.2935,-2.52603 0.25,-1.99164 -1.16297,0.30412 -2.12138,1.06297 -2.1298,1.68632 -0.009,0.63661 -0.41044,0.50905 -0.91681,-0.29103 -0.72391,-1.14382 -2.18932,-0.45436 -7.43904,3.5 -3.59566,2.70842 -6.55809,5.68534 -6.5832,6.61538 -0.0565,2.09265 -0.64622,2.46457 -5.04564,3.18199 -1.925,0.31392 -6.2,1.31261 -9.5,2.21932 -9.87571,2.71347 -11.46756,2.69052 -3.67768,-0.053 8.74839,-3.08112 15.89785,-6.61425 21.53389,-10.64167 6.81251,-4.86809 17.55343,-16.0068 21.37129,-22.16276 1.96652,-3.17084 3.78366,-5.55701 4.03808,-5.30259 0.25442,0.25442 -1.61948,3.44099 -4.16421,7.08126 -3.01511,4.31316 -4.3554,7.1036 -3.84771,8.0108 1.07386,1.91889 7.24634,-2.89876 7.24634,-5.65579 0,-1.0926 0.36912,-1.75842 0.82027,-1.47959 1.12076,0.69267 6.4234,-8.47338 9.48113,-16.38892 4.39115,-11.36737 6.00886,-22.02274 5.38962,-35.5 C 192.0393,83.315546 190.38948,76.639433 184.536,64.5 173.29834,41.194418 151.67022,23.781567 126,17.372515 114.84395,14.587198 91.429242,14.819596 80.55398,17.82358 50.133029,26.226509 25.859981,50.387253 18.435761,79.654396 15.50397,91.21186 15.09678,109.47595 17.536275,120 c 2.767035,11.93707 8.59684,24.31235 15.660253,33.24297 2.646792,3.34647 3.121164,3.5822 4.478077,2.22528 1.356914,-1.35691 2.171647,-0.90596 7.691081,4.25703 11.184617,10.46232 23.12896,17.15041 38.345812,21.47129 6.260942,1.77782 10.419824,2.21562 21.204702,2.2322 7.37891,0.0113 12.32891,0.32466 11,0.69625 -2.07902,0.58134 -1.92777,0.69167 1.0838,0.79061 2.64808,0.087 3.13489,0.35095 2,1.08437 -2.58984,1.67368 0.7072,1.22199 10.25541,-1.40499 z M 119.75,182.33772 c 0.6875,-0.27741 1.8125,-0.27741 2.5,0 0.6875,0.27741 0.125,0.50439 -1.25,0.50439 -1.375,0 -1.9375,-0.22698 -1.25,-0.50439 z M 94.5,178.88213 C 64.910011,175.88026 38.028995,154.11223 28.433567,125.38208 24.856081,114.67056 23.990592,97.73632 26.440722,86.389904 28.505334,76.8288 36.198191,60.617963 42.32547,52.916637 50.307574,42.883998 66.172006,32.52025 80.5,27.978385 c 8.776706,-2.78215 31.15486,-3.890547 40.75839,-2.018777 34.75971,6.774821 62.68292,40.006048 62.73406,74.659402 0.0205,13.90874 -5.2166,31.22894 -13.15784,43.51559 -15.57456,24.09687 -45.78158,37.84711 -76.33461,34.74753 z m 33,-7.27566 c 12.38891,-4.01997 21.93928,-9.82545 30.68378,-18.65206 6.34133,-6.40088 8.56388,-9.56406 12.72124,-18.10517 6.0824,-12.49601 8.30471,-21.38586 8.33674,-33.34924 0.0716,-26.717082 -15.967,-52.139535 -40.49481,-64.187719 C 99.568643,18.067705 54.368396,33.933946 35.892312,73.416428 31.370733,83.07882 29.740189,92.556464 30.286599,106 c 0.641777,15.78989 4.814001,27.09334 14.93805,40.4704 9.468965,12.51149 24.361016,22.19688 40.775351,26.5192 10.985802,2.89285 30.30662,2.24892 41.5,-1.38313 z m -30.602117,-12.8764 c -4.585464,-3.06329 -7.115186,-8.15939 -6.596789,-13.28917 0.408934,-4.0466 0.389938,-4.07171 -6.167036,-8.15244 l -6.577233,-4.09334 -2.855484,2.40273 c -10.822186,9.10627 -27.451525,-1.67073 -23.755834,-15.39548 1.134789,-4.21428 5.101683,-8.5263 9.304493,-10.114 2.858877,-1.08 2.77023,-0.74339 3.178571,-12.069589 0.04971,-1.378863 -1.296718,-2.671002 -4.428571,-4.25 -3.395536,-1.711939 -5.074965,-3.427743 -6.842621,-6.990826 -2.921722,-5.889346 -2.322256,-10.909069 1.916958,-16.051972 5.189346,-6.295576 12.999538,-7.200925 20.166015,-2.337623 l 3.44151,2.335472 6.37347,-3.833372 c 6.250996,-3.759708 6.368,-3.909129 6.088823,-7.775734 -0.335966,-4.653115 1.646409,-8.919266 5.748457,-12.370911 4.327418,-3.641285 9.159328,-4.256776 14.583068,-1.857598 5.61387,2.483284 8.5155,6.971697 8.52058,13.180164 0.004,4.531898 0.0533,4.597985 6.56842,8.751556 l 6.56468,4.185175 3.4417,-2.625112 c 6.90835,-5.269254 16.33509,-3.701078 21.15901,3.519883 5.14313,7.698803 0.96157,20.390166 -7.48007,22.702589 -2.05109,0.561855 -2.25,1.21488 -2.25,7.386618 0,6.58202 0.0836,6.80487 3.0046,8.01482 1.65253,0.6845 4.35253,2.77975 6,4.65611 6.96867,7.93688 1.55556,22.65239 -8.84591,24.04752 -5.18824,0.69589 -8.30999,-0.12053 -11.84968,-3.09898 l -2.84514,-2.39403 -6.73193,4.01196 C 119.039,141.21321 119,141.26213 119,145.66789 c 0,5.30818 -1.83822,9.17675 -6.04081,12.71299 -4.13363,3.47822 -11.14911,3.63074 -16.061307,0.34919 z M 111.25,153.24159 C 117.45372,147.34068 113.0139,136 104.5,136 c -5.075122,0 -9.5,4.41967 -9.5,9.48882 0,4.68908 1.361142,7.14468 5.31382,9.58653 3.84624,2.37609 7.08042,1.83379 10.93618,-1.83376 z M 94.709121,135.09416 c 0.654618,-1.04821 2.787864,-2.43311 4.740547,-3.07755 L 103,130.8449 v -6.82463 c 0,-6.77196 -0.0246,-6.83319 -3.185066,-7.93494 -1.751786,-0.61068 -3.943104,-1.79634 -4.869596,-2.6348 -1.525195,-1.38028 -2.335326,-1.16628 -8.564934,2.2625 L 79.5,119.5 80,124.30607 c 0.478303,4.59752 0.760362,4.97487 6.5,8.69609 3.3,2.1395 6.229254,3.91427 6.509453,3.94393 0.280199,0.0297 1.04505,-0.80372 1.699668,-1.85193 z m 29.619729,-2.52783 c 5.59754,-3.5807 5.67063,-3.68904 5.63119,-8.34706 l -0.04,-4.71927 -6.54838,-3.82503 c -5.99886,-3.50405 -6.69328,-3.69391 -8.27497,-2.2625 -0.94962,0.8594 -3.15987,2.06218 -4.91165,2.67286 -3.1644,1.10312 -3.18507,1.15502 -3.18507,7.99908 0,6.82659 0.0293,6.90101 3.25,8.24727 1.7875,0.74718 3.8846,2.1237 4.66021,3.05892 1.66481,2.0074 2.04264,1.8941 9.41864,-2.82427 z M 151.25,130.94853 C 157.28059,124.41338 152.98832,114 144.26401,114 c -7.87643,0 -12.38509,9.32212 -7.61569,15.74621 4.42173,5.9558 9.80608,6.39916 14.60168,1.20232 z m -78.987315,-0.0446 c 3.730702,-4.56498 3.430653,-10.30154 -0.757898,-14.49009 -3.33087,-3.33087 -9.242325,-3.31323 -12.858764,0.0384 -4.807421,4.45537 -3.263736,14.0718 2.662274,16.58472 3.308329,1.40289 8.96482,0.30148 10.954388,-2.133 z M 84.5,111.35655 l 6,-3.12908 -0.33186,-5.86374 L 89.836281,96.5 83.734088,92.808008 77.631896,89.116016 74.281152,92.058008 C 72.438242,93.676103 70.271066,95 69.465204,95 68.318215,95 68,96.515856 68,101.97968 v 6.97967 l 3.932151,2.00604 c 2.162684,1.10331 4.228922,2.48621 4.591641,3.07311 0.362719,0.58689 0.955751,0.92759 1.317849,0.7571 C 78.203738,114.62512 81.2,113.07755 84.5,111.35655 Z m 49.96593,1.6811 c 0.97675,-1.0793 3.29649,-2.4642 5.15499,-3.07756 3.37077,-1.11245 3.37908,-1.13093 3.37908,-7.51732 0,-6.370311 -0.0186,-6.412213 -3.75,-8.432919 -2.0625,-1.116938 -4.51943,-2.574881 -5.45984,-3.239874 -1.4133,-0.999391 -2.80632,-0.62323 -8.03236,2.168997 l -6.32253,3.378074 0.0324,5.768322 0.0324,5.76832 6,3.52468 c 3.3,1.93857 6.26776,3.54649 6.59501,3.57315 0.32726,0.0267 1.39417,-0.83458 2.37092,-1.91387 z m -22.77931,-3.21297 c 5.08336,-4.77557 3.37633,-14.64695 -2.99306,-17.308254 -4.1289,-1.725164 -7.32414,-1.051781 -10.94356,2.306312 -3.678503,3.412907 -3.943001,10.748172 -0.5,13.866382 5.36578,4.85959 10.07802,5.23025 14.43662,1.13556 z M 129.9828,80.138303 c -0.0171,-4.61728 -0.0473,-4.657685 -6.65758,-8.91458 -6.62645,-4.267312 -6.64476,-4.272169 -8.7328,-2.316613 -1.15083,1.077816 -3.30475,2.418934 -4.78649,2.980264 -2.61675,0.991306 -2.68359,1.215649 -2.32864,7.816612 0.35448,6.592045 0.46714,6.846084 3.75381,8.464294 1.8636,0.917554 3.95133,2.346613 4.6394,3.175686 1.09045,1.313907 2.07761,0.989145 7.69027,-2.529977 6.42067,-4.025746 6.43918,-4.050754 6.42203,-8.675686 z M 96.595138,89.5 C 98.621314,88.125 100.8913,87 101.63955,87 102.65599,87 103,85.246997 103,80.067388 c 0,-6.321307 -0.1984,-6.99255 -2.25,-7.612345 -1.2375,-0.373852 -3.438622,-1.79154 -4.891382,-3.150416 l -2.641382,-2.470684 -6.876978,4.101926 -6.876977,4.101926 0.17216,5.168146 0.17216,5.168146 6.346199,3.264436 c 3.49041,1.79544 6.438716,3.28627 6.551791,3.312956 C 92.818666,91.978166 94.568962,90.875 96.595138,89.5 Z m 53.037822,-0.272236 c 5.26208,-4.262451 5.908,-11.366647 1.46583,-16.122009 -7.92985,-8.488935 -21.35616,2.269603 -15.22095,12.196588 3.41273,5.521906 9.60326,7.288555 13.75512,3.925421 z M 70.055391,88.970356 C 72.51312,87.655019 75,82.866607 75,79.44966 c 0,-1.698647 -1.26574,-3.9154 -3.526536,-6.176196 -3.129111,-3.129111 -3.946154,-3.459733 -7.25,-2.933761 -8.59338,1.368066 -11.320401,12.996172 -4.310121,18.378494 1.954393,1.500535 7.549507,1.639644 10.142048,0.252159 z M 107.98896,67.505711 C 111.95487,65.454858 114,62.220739 114,58 c 0,-6.941515 -5.86971,-11.188194 -12.45858,-9.013669 -8.607525,2.840739 -8.713023,14.855626 -0.16312,18.576748 3.88642,1.691463 3.21757,1.697267 6.61066,-0.05737 z M 179.07087,137.5 c 0,-0.55 0.64311,-2.125 1.42913,-3.5 0.78602,-1.375 1.42913,-2.05 1.42913,-1.5 0,0.55 -0.64311,2.125 -1.42913,3.5 -0.78602,1.375 -1.42913,2.05 -1.42913,1.5 z m -0.67157,45.90183 c 0.62449,-1.62741 -3.01824,-6.70702 -5.1061,-7.12021 -2.30101,-0.45537 -2.10893,2.78392 0.33747,5.6913 2.88134,3.42429 3.88726,3.72571 4.76863,1.42891 z m 3.36907,-14.11172 -5.70153,-5.70153 -2.53342,2.38002 C 172.14004,167.27762 171,169.03903 171,169.88286 c 0,0.84382 2.30833,3.7359 5.12961,6.42684 l 5.12961,4.89261 3.10534,-3.10533 3.10534,-3.10534 z M 167,174 c 0,-0.55 -0.47656,-1 -1.05902,-1 -0.58246,0 -0.7809,0.45 -0.44098,1 0.33992,0.55 0.81648,1 1.05902,1 0.24254,0 0.44098,-0.45 0.44098,-1 z m 3.28571,-13.61905 c 0.9519,-0.95189 -2.12844,-3.59618 -3.3266,-2.85568 -0.72795,0.4499 -0.69227,1.09132 0.11478,2.06376 1.26675,1.52634 2.23794,1.76581 3.21182,0.79192 z"
         id="path4" />
      <path
         style="display:inline;fill:#55696a"
         d="m 221,241.27932 c -0.825,-0.30953 -5.32898,-4.2115 -10.00885,-8.67105 -4.67987,-4.45955 -15.36737,-14.3617 -23.75,-22.00478 C 178.85852,202.96042 172,196.09181 172,195.33992 c 0,-0.75188 0.56047,-2.26452 1.24549,-3.36141 1.12657,-1.80393 0.52982,-2.65253 -6.25,-8.88777 -7.31489,-6.72733 -7.54368,-6.85022 -9.49549,-5.10066 -4.94947,4.4366 -19.97798,10.37138 -34.4204,13.59267 -10.43189,2.32676 -33.520134,1.52514 -44.01233,-1.5281 C 45.808573,180.37631 21.704138,155.70239 13.854675,123.30135 10.702354,110.28919 10.732477,91.617574 13.925339,79.5 20.900862,53.026446 38.737723,31.487202 63.15648,20.049992 100.7544,2.4399488 142.82647,9.5716758 171.54419,38.423027 c 11.31008,11.362705 18.96715,24.438196 23.62582,40.344308 3.06937,10.479751 3.29222,32.915535 0.43936,44.232665 -3.41888,13.56253 -11.49251,30.95564 -15.52639,33.44872 -2.09091,1.29225 -1.0294,3.34071 4.98783,9.62524 5.4861,5.7298 6.42518,6.31978 9.75,6.12547 3.53803,-0.20677 4.54828,0.63895 26.33101,22.04278 21.94155,21.55986 22.67225,22.40503 23.30315,26.95357 1.15288,8.3119 -2.27363,16.10773 -8.49361,19.3242 -2.77655,1.43581 -11.9213,1.89994 -14.96136,0.75934 z m 11.80202,-5.67694 c 6.3513,-3.28439 8.69034,-9.6552 5.78939,-15.76851 C 236.41305,215.24333 197.66439,177 195.19155,177 c -1.04579,0 -4.10421,2.379 -6.79649,5.28666 C 182.50941,188.64317 178,193.86069 178,194.31408 c 0,0.18226 8.42696,8.17366 18.72657,17.75866 10.29962,9.58499 20.08712,18.83877 21.75,20.56395 4.4684,4.63578 9.20115,5.61557 14.32545,2.96569 z M 121.26545,186.9459 c 11.96712,-2.43874 23.08211,-6.55864 31.57483,-11.70357 19.11754,-11.58152 33.78217,-32.52382 38.7183,-55.29298 C 193.87572,109.261 193.63287,91.677771 191.02754,81.5 182.73339,49.098664 156.91026,24.20227 124.06104,16.936787 101.68587,11.98792 77.033831,16.066467 56.716029,28.078657 47.386641,33.594332 32.878636,48.169688 27.238356,57.693177 13.697872,80.555983 11.925987,113.0352 22.931275,136.64332 c 11.47793,24.62202 34.193387,43.22267 60.191732,49.28828 15.483995,3.61253 24.248983,3.84561 38.142443,1.0143 z M 84.5,177.04855 C 50.692048,168.1555 27.22418,140.18036 25.318021,106.5 23.138465,67.988928 49.131644,34.456953 87.270778,26.579099 c 10.931094,-2.25788 27.503182,-2.066602 37.265282,0.430123 37.48665,9.587472 63.16196,45.602672 58.64178,82.257858 -3.74803,30.39358 -22.35466,54.27793 -50.40664,64.70434 -14.48513,5.38385 -34.621971,6.66751 -48.2712,3.07713 z m 29.33748,-2.54975 c 15.9046,-1.5507 31.86792,-9.19987 43.77495,-20.97574 6.90588,-6.8298 8.87687,-9.58471 13.25224,-18.52306 6.49145,-13.26124 8.4478,-20.8954 8.45668,-33 0.0239,-32.62736 -21.74558,-60.984928 -53.86642,-70.167899 -11.73074,-3.353682 -31.610925,-3.214625 -43.073173,0.301287 -22.386783,6.866884 -41.214613,24.906259 -49.013638,46.961086 -3.19971,9.048446 -4.373413,27.083496 -2.416085,37.125416 5.114718,26.24068 24.958062,47.62042 51.751818,55.75878 7.161453,2.17522 19.037218,3.95842 22.796148,3.42294 1.1,-0.1567 4.85186,-0.56297 8.33748,-0.90281 z M 96.999494,158.75 c -4.795866,-3.27361 -7.242912,-8.28783 -6.581095,-13.48526 0.507687,-3.98699 0.350031,-4.33097 -2.68955,-5.86805 -1.775867,-0.89804 -4.723978,-2.75246 -6.551357,-4.12094 -3.321286,-2.48723 -3.32331,-2.48741 -5.5,-0.50691 -8.843564,8.04649 -21.23533,4.23328 -24.622428,-7.57684 -1.825957,-6.36674 2.845683,-15.37603 8.740152,-16.85545 C 62.684951,109.61127 64,106.383 64,100.01436 64,95.431342 63.831493,95.1219 60.996755,94.499287 56.855879,93.589798 52.266558,88.703637 50.945616,83.798035 48.796452,75.816646 54.917412,66.699049 63.342625,65.331825 66.958595,64.745034 76,68.143323 76,70.089206 c 0,1.645512 1.835227,0.964148 8.139463,-3.02193 l 6.219852,-3.932725 0.07244,-4.996749 c 0.04974,-3.431057 0.731219,-5.88054 2.174873,-7.817276 C 101.41424,38.504664 119,43.806947 119,58.278392 c 0,4.50034 0.0598,4.580066 6.46518,8.625457 l 6.46519,4.083133 3.63539,-2.467047 c 6.37715,-4.327651 11.85902,-4.423634 17.69933,-0.309901 5.55495,3.912735 7.19569,11.111462 4.22104,18.51973 C 156.05276,90.299528 150.76814,95 148.18812,95 c -0.80042,0 -1.18724,2.202646 -1.18542,6.75 l 0.003,6.75 3.71634,2 c 5.03822,2.71139 8.27865,7.76107 8.27671,12.89788 -0.005,13.61155 -14.55658,20.47671 -24.49845,11.55803 -1.94052,-1.7408 -2.20076,-1.67409 -8.75,2.24319 -6.49589,3.88536 -6.75,4.1847 -6.75,7.95125 0,5.29692 -2.07852,9.89648 -5.94075,13.14634 -4.22863,3.55816 -11.22194,3.75555 -16.059756,0.45331 z M 111.25,153.24159 C 117.45372,147.34068 113.0139,136 104.5,136 c -5.075122,0 -9.5,4.41967 -9.5,9.48882 0,4.68908 1.361142,7.14468 5.31382,9.58653 3.84624,2.37609 7.08042,1.83379 10.93618,-1.83376 z M 94,135.94377 c 0,-0.58093 2.025,-1.95198 4.5,-3.04679 l 4.5,-1.99057 v -6.85538 c 0,-6.80654 -0.0227,-6.86329 -3.185066,-7.9657 -1.751786,-0.61068 -3.959486,-1.81116 -4.905999,-2.66774 -1.573261,-1.42378 -2.308276,-1.23705 -8.565677,2.17617 l -6.844745,3.73359 0.07082,4.88561 0.07083,4.88561 6.429918,3.9154 C 92.956947,137.20763 94,137.593 94,135.94377 Z m 30.49744,-3.39898 c 5.41402,-3.46331 5.50228,-3.59657 5.48509,-8.28237 l -0.0175,-4.76242 -6.30062,-3.75 c -7.26092,-4.32155 -7.75554,-4.41181 -10.08305,-1.83994 -0.95072,1.05054 -2.82046,2.18411 -4.15499,2.51906 -2.2781,0.57176 -2.4264,1.03483 -2.4264,7.57651 0,6.91547 0.0243,6.97768 3.25,8.32605 1.7875,0.74718 3.8846,2.1237 4.66021,3.05892 1.65669,1.99761 2.32661,1.79875 9.58723,-2.84581 z M 151.25,130.94853 C 157.16418,124.53953 152.99261,114 144.54174,114 c -9.44412,0 -13.32307,10.02102 -6.72214,17.3662 3.97272,4.42063 9.11317,4.26077 13.4304,-0.41767 z m -79.173077,0.12839 c 3.631155,-3.63115 3.874611,-8.37324 0.673077,-13.11031 -4.535678,-6.7111 -13.974334,-5.37411 -16.49143,2.33602 -3.344458,10.24443 8.369523,18.22312 15.818353,10.77429 z m 12.447926,-19.70127 c 4.592484,-2.52435 6.423953,-4.06669 6.034423,-5.08179 C 90.251672,105.49227 90,102.90082 90,100.53509 90,96.335304 89.856422,96.148222 83.918662,92.611117 l -6.081337,-3.622634 -3.646507,3.005758 C 72.18524,93.647409 69.971842,95 69.272156,95 68.364125,95 68,96.99777 68,101.97968 v 6.97967 l 3.932151,2.00604 c 2.162684,1.10331 4.214241,2.46246 4.559017,3.02032 0.856518,1.38587 0.630209,1.4594 8.033681,-2.61006 z m 49.941081,1.662 c 0.97675,-1.0793 3.29649,-2.4642 5.15499,-3.07756 L 143,108.8449 v -6.81404 c 0,-6.376524 -0.15557,-6.85309 -2.42293,-7.42216 -1.33261,-0.334464 -3.75716,-1.730798 -5.38788,-3.102964 l -2.96496,-2.494848 -5.80329,3.494556 C 123.22914,94.42745 120.30904,96 119.93185,96 c -0.3772,0 -0.5787,2.741391 -0.44779,6.09198 l 0.23802,6.09198 5.88896,3.37774 c 3.23893,1.85776 6.15672,3.39137 6.48397,3.40802 0.32726,0.0167 1.39417,-0.85278 2.37092,-1.93207 z m -22.77931,-3.21297 c 5.18566,-4.87167 3.37478,-14.647599 -3.22403,-17.404759 -4.22767,-1.766434 -6.92416,-1.167481 -10.71259,2.379515 -3.677525,3.443162 -3.941382,10.772944 -0.5,13.889684 5.36578,4.85959 10.07802,5.23025 14.43662,1.13556 z M 129.76254,80.394636 130.02508,75.5 l -6.61724,-4.325952 -6.61724,-4.325953 -2.1453,2.00934 c -1.17992,1.105137 -3.3828,2.478178 -4.8953,3.051202 -2.63506,0.998316 -2.75,1.33138 -2.75,7.968787 0,6.65499 0.10796,6.96498 2.75,7.896258 1.5125,0.533133 3.83542,1.855345 5.16204,2.938249 l 2.41205,1.968916 6.08795,-3.695787 c 6.01378,-3.650754 6.09116,-3.755429 6.3505,-8.590424 z M 96.595138,89.5 C 98.621314,88.125 100.8913,87 101.63955,87 102.65771,87 103,85.232559 103,79.975249 c 0,-6.744125 -0.10986,-7.066371 -2.75,-8.066612 -1.5125,-0.573024 -3.716773,-1.947369 -4.898385,-3.054101 l -2.148385,-2.012239 -6.944881,4.142429 -6.944881,4.142429 0.176274,5.009888 0.176275,5.009889 5.916992,3.361432 c 3.254345,1.848788 6.234507,3.390728 6.622582,3.426534 C 92.593666,91.970704 94.568962,90.875 96.595138,89.5 Z M 68.465701,89.57878 C 74.125006,87.214169 76.437685,80.680855 73.574996,75.145025 70.662139,69.512182 63.430624,68.41553 58.923077,72.923077 56.633112,75.213042 56,76.743417 56,79.988818 c 0,5.339907 1.396026,7.842718 5.328737,9.553421 3.93058,1.709775 3.142008,1.705738 7.136964,0.03654 z m 81.167259,-0.351014 c 5.26208,-4.262451 5.908,-11.366647 1.46583,-16.122009 -7.92985,-8.488935 -21.35616,2.269603 -15.22095,12.196588 3.41273,5.521906 9.60326,7.288555 13.75512,3.925421 z m -41.644,-21.722053 C 111.95487,65.454858 114,62.220739 114,58 c 0,-6.941515 -5.86971,-11.188194 -12.45858,-9.013669 -8.607525,2.840739 -8.713023,14.855626 -0.16312,18.576748 3.88642,1.691463 3.21757,1.697267 6.61066,-0.05737 z M 48.872445,164.25 c -1.243871,-1.58606 -1.208501,-1.62143 0.377555,-0.37756 0.9625,0.75485 1.75,1.54235 1.75,1.75 0,0.82304 -0.821186,0.29331 -2.127555,-1.37244 z m 133.400235,15.76838 5.1953,-4.98163 -5.44983,-5.51837 C 179.02074,166.48327 176.3206,164 176.01783,164 c -0.30277,0 -2.93664,2.18218 -5.85304,4.8493 l -5.30255,4.84929 5.81888,5.63055 c 3.20038,3.09681 5.94879,5.63962 6.10757,5.65071 0.15878,0.0111 2.62657,-2.22158 5.48399,-4.96147 z"
         id="path3" />
      <path
         style="display:inline;fill:#022029"
         d="m 221.14723,240.93082 c -1.29403,-0.51833 -9.84403,-8.0815 -19,-16.80705 C 192.99125,215.39822 182.8,205.91519 179.5,203.05038 c -7.42899,-6.44929 -8.0945,-7.57103 -6.38586,-10.76366 1.283,-2.39729 1.04481,-2.76817 -6.06093,-9.43732 l -7.39642,-6.94197 -4.07839,2.91294 c -6.06558,4.33227 -17.29423,8.93278 -28.83205,11.81284 C 117.44829,192.95419 115.15804,193.1466 102,192.71217 84.976531,192.15012 76.391484,190.19036 63.876699,184.00952 37.493559,170.97935 21.301686,151.17811 13.88242,122.87092 10.71726,110.79468 10.70509,91.769192 13.855057,80.092268 24.180741,41.814962 55.186685,15.556869 95.496578,10.952278 115.8109,8.6317771 138.68325,14.324422 156.1372,26.044983 c 21.85323,14.674731 36.94875,37.654293 40.90185,62.263936 3.445,21.446581 -3.02598,49.396111 -15.1561,65.462331 l -4.00169,5.30021 6.53259,6.7666 c 5.98242,6.19671 6.82485,6.73247 10.00268,6.36148 3.20757,-0.37447 4.06064,0.19344 11.27677,7.50731 4.29369,4.35183 13.92599,13.73558 21.40512,20.85278 7.47914,7.1172 14.41351,14.20857 15.40972,15.7586 1.17963,1.83541 1.8387,4.83537 1.88988,8.60238 0.0651,4.7935 -0.40497,6.48191 -2.74471,9.85816 -1.55281,2.2407 -4.31555,4.78213 -6.13943,5.64762 -3.64478,1.72956 -10.69044,1.97694 -14.36665,0.50443 z m 11.21699,-4.30964 c 6.8656,-2.86863 9.69754,-10.81074 6.2118,-17.42084 -0.7832,-1.48519 -10.63666,-11.85358 -21.89658,-23.04087 -17.52192,-17.40889 -20.73973,-20.19637 -22.32602,-19.34027 -1.65845,0.89504 -11.01384,10.35179 -15.61654,15.78573 -1.73637,2.04996 -1.42647,2.39874 20.42584,22.98831 12.20393,11.49872 22.89733,21.21263 23.76312,21.58647 2.56718,1.1085 5.92405,0.90985 9.43838,-0.55853 z m -110.62794,-49.0657 c 23.46327,-4.93566 42.21513,-16.35107 54.78724,-33.35239 C 202.78511,118.68944 198.62376,69.393576 166.83399,39.419675 135.10853,9.506417 86.965965,6.1547617 51.592636,31.396644 12.818132,59.065556 3.6855517,111.93007 30.889519,151.23795 43.731057,169.79309 63.714541,182.6999 87,187.47823 c 8.791972,1.80417 26.34125,1.84319 34.73628,0.0772 z M 87.5,177.53235 C 75.331193,174.87822 59.991684,167.15898 50.811712,159.06985 40.79366,150.24223 30.994046,133.93356 27.335278,120 24.784352,110.28539 25.040204,92.757224 27.881655,82.568208 35.436585,55.477373 55.294286,35.619098 82.63834,27.809943 89.062727,25.97521 93.059487,25.558823 104.5,25.53237 c 14.94206,-0.03455 20.69618,0.948928 31,5.298419 23.09892,9.750613 41.33095,31.574381 46.56977,55.744078 1.71029,7.890522 1.50157,22.185833 -0.45813,31.378683 -5.05397,23.70785 -24.33487,46.41959 -46.63749,54.93616 -15.50049,5.91908 -33.53553,7.68278 -47.47415,4.64264 z m 36.22237,-4.58713 c 13.70009,-3.50022 23.54259,-9.14155 33.86096,-19.40779 7.70542,-7.66648 9.78744,-10.47855 13.72487,-18.53743 6.4432,-13.18751 8.14024,-20.17789 8.13275,-33.5 -0.007,-12.903231 -2.15882,-21.239743 -8.77502,-34 C 162.58876,51.922047 146.10456,38.147176 128.5,32.264422 c -7.32385,-2.447343 -9.35231,-2.675193 -24,-2.695841 -14.952336,-0.02108 -16.523832,0.159788 -24,2.762198 C 55.998505,40.859607 36.772331,61.675193 30.928792,86 c -2.200631,9.160529 -1.732749,26.20234 0.960923,35 6.872256,22.44512 22.678493,40.24618 43.166954,48.61482 15.92228,6.50355 31.952061,7.60054 48.665701,3.3304 z M 98.121495,159.29009 c -4.687415,-2.30918 -7.113208,-6.69078 -7.117757,-12.85647 L 91,141.36724 84.437759,137.18362 C 80.828527,134.88263 77.561773,133 77.178306,133 c -0.383467,0 -1.246272,0.87918 -1.917345,1.95374 -1.602831,2.56654 -8.168551,4.47378 -12.563052,3.64937 -9.990275,-1.87419 -15.153949,-14.23226 -9.447909,-22.6114 2.386063,-3.50386 3.596757,-4.40697 8,-5.96756 2.634872,-0.93384 2.75,-1.25935 2.75,-7.77528 V 95.448239 L 59.75,93.47412 C 54.17154,90.882932 51,86.058522 51,80.163996 51,68.464734 63.726437,61.932043 73.541791,68.592922 l 3.820885,2.592923 3.568662,-2.137566 c 1.962764,-1.175661 5.062779,-2.890899 6.888921,-3.811639 3.005854,-1.51555 3.261928,-1.985011 2.704246,-4.957708 -0.860281,-4.585693 2.428568,-11.653941 6.657466,-14.307928 4.580159,-2.874433 12.745479,-2.32153 16.420729,1.111906 3.81681,3.56568 5.57385,7.590013 5.25315,12.031816 -0.27926,3.867725 -0.16227,4.016882 6.17975,7.878508 3.55542,2.164881 6.84944,3.952036 7.32004,3.971456 0.47061,0.01942 2.19263,-1.08969 3.82673,-2.46469 3.77132,-3.173353 11.71322,-3.470889 16.39767,-0.614322 C 156.1414,70.057395 159,75.42178 159,79.933248 c 0,6.206341 -4.78901,13.378524 -9.5,14.227527 -1.74548,0.314565 -2.03713,1.268711 -2.29174,7.497525 l -0.29175,7.1371 3.77855,1.8523 c 7.88688,3.86627 10.29618,11.97976 6.05494,20.39041 -4.11093,8.15222 -13.82709,10.19142 -21.32177,4.47494 l -3.25353,-2.48158 -6.83735,4.18386 -6.83735,4.18387 -0.0494,5.11426 c -0.10817,11.20684 -10.3937,17.67118 -20.329145,12.77663 z m 11.006945,-3.85651 c 4.20289,-2.1734 6.24562,-7.33071 4.89308,-12.35366 -1.1944,-4.43568 -2.55384,-5.79861 -7.07792,-7.09609 -5.54244,-1.58956 -10.158746,1.51565 -12.332938,8.29588 -0.884706,2.75896 2.335668,9.62255 5.26055,11.21182 3.433228,1.8655 5.563478,1.85217 9.257228,-0.058 z m 14.91255,-22.17531 6.54099,-4.21957 -0.18909,-4.75378 c -0.13291,-3.34122 -0.71101,-5.05556 -1.94554,-5.76935 -0.96604,-0.55857 -4.02811,-2.47081 -6.80461,-4.24945 -4.99399,-3.19916 -5.07014,-3.21329 -7.09545,-1.31661 -1.12601,1.0545 -3.28479,2.3861 -4.79729,2.95913 -2.65484,1.00581 -2.75,1.29529 -2.75,8.36572 v 7.32386 l 3.54127,1.28054 c 1.9477,0.7043 4.08168,2.14587 4.74217,3.2035 0.6605,1.05763 1.42943,1.8043 1.70874,1.65927 0.2793,-0.14503 3.45127,-2.1625 7.04881,-4.48326 z M 96.182369,134.5 c 1.634095,-1.375 3.855481,-2.5 4.936421,-2.5 1.80965,0 1.9422,-0.61309 1.67327,-7.73916 -0.25754,-6.82436 -0.52847,-7.78379 -2.29206,-8.11676 -1.1,-0.20768 -3.259736,-1.27154 -4.799413,-2.36412 l -2.799412,-1.98652 -6.686663,3.52986 -6.686663,3.52986 -0.104563,5.04471 -0.104563,5.04471 6.590638,4.02259 c 3.624852,2.21242 6.750679,4.02534 6.946283,4.02871 0.195604,0.003 1.692631,-1.11888 3.326725,-2.49388 z M 72.25,130.88782 c 3.805321,-4.03969 3.805321,-9.698 0,-13.87453 -3.810716,-4.18244 -7.834541,-4.77438 -12.25,-1.80208 -6.878335,4.63021 -6.156741,15.10948 1.258557,18.27727 4.223452,1.80424 7.593141,1.00695 10.991443,-2.60066 z M 150.6,131.6 c 2.73989,-2.73989 3.4,-4.18112 3.4,-7.42327 0,-7.77749 -7.49114,-13.04259 -13.86631,-9.74587 -6.13207,3.17102 -7.8735,9.4099 -4.18735,15.00171 4.17338,6.33093 9.67623,7.14486 14.65366,2.16743 z M 84.48819,111.72188 90.476379,108.5 90.48819,102.46532 90.5,96.430649 84.287131,92.715325 c -6.954578,-4.15887 -7.819805,-4.375541 -8.666084,-2.170172 -0.326112,0.849834 -2.174257,2.205873 -4.106989,3.01342 L 68,95.02684 v 7.28569 7.28569 l 3.401806,1.23011 c 1.870994,0.67656 3.951094,1.89196 4.622445,2.70089 1.593127,1.9196 1.500162,1.93945 8.463939,-1.80734 z m 49.08184,2.1648 c 0.37844,-0.61232 2.655,-1.98338 5.05902,-3.04679 L 143,108.90641 v -6.88582 c 0,-6.271673 -0.20068,-6.946771 -2.25,-7.569269 -1.2375,-0.375899 -3.70881,-1.776312 -5.4918,-3.112027 l -3.24181,-2.428574 -6.42655,3.79464 -6.42656,3.79464 0.20981,5.86562 0.20981,5.86561 5.45855,3.30785 c 5.9649,3.6147 7.4866,4.03356 8.52858,2.3476 z M 109.85497,111.575 c 6.69612,-3.4627 6.65521,-14.302539 -0.0718,-19.014296 C 103.7605,88.342235 94,94.208069 94,102.04605 c 0,3.27725 3.050873,7.72559 6.44866,9.40249 3.84036,1.89532 5.93134,1.92343 9.40631,0.12646 z m 13.66391,-22.514014 6.74066,-3.939014 0.12023,-4.743949 0.12023,-4.743949 -6.81865,-4.409896 c -6.1126,-3.953263 -6.99275,-4.257446 -8.5,-2.937626 -0.92474,0.809748 -3.14385,2.213091 -4.93135,3.118539 -3.19257,1.617181 -3.25,1.767925 -3.25,8.531383 v 6.885113 L 111.5,89 c 2.475,1.198127 4.5,2.58827 4.5,3.089206 0,1.334864 0.16901,1.266796 7.51888,-3.02822 z m -27.67325,1.07021 c 1.459903,-1.027842 3.66687,-2.183167 4.90437,-2.567388 2.05079,-0.636734 2.25,-1.314558 2.25,-7.655947 0,-6.670611 -0.11334,-7.000304 -2.75,-7.999224 -1.5125,-0.573024 -3.779177,-2.005995 -5.03706,-3.18438 -2.211656,-2.071879 -2.376506,-2.084825 -5,-0.392657 C 88.720823,69.294023 85.5875,71.052801 83.25,72.239995 79.064896,74.365571 79,74.478587 79,79.641356 v 5.242825 l 6.25,3.54249 c 3.4375,1.94837 6.630533,3.549429 7.09563,3.55791 0.465096,0.0085 2.040096,-0.825543 3.5,-1.853385 z M 71.6,87.6 C 76.212155,82.987845 76.39877,77.244924 72.076923,72.923077 63.809102,64.655256 50.712324,75.796902 56.958507,85.784562 60.754318,91.854071 66.618779,92.581221 71.6,87.6 Z m 79.49879,0.294245 c 3.92132,-4.197787 4.05149,-10.373759 0.31232,-14.81752 C 149.24994,70.508321 148.10265,70 144.46687,70 c -6.06092,0 -9.49503,3.070245 -10.17425,9.096221 -0.46494,4.124982 -0.19958,4.860023 2.96646,8.217003 4.66169,4.942833 9.57258,5.149002 13.83971,0.581021 z M 109.02002,67.48965 C 112.72202,65.57527 114,63.171181 114,58.121505 c 0,-5.406256 -3.18468,-9.069296 -8.50156,-9.778555 -5.08065,-0.677746 -8.957973,2.121093 -10.61908,7.665373 -1.389022,4.636144 0.186817,7.841773 5.42497,11.03568 3.85093,2.348056 4.93012,2.403237 8.71569,0.445647 z m 77.87211,107.80584 c 0.0593,-0.66247 -2.38048,-3.79423 -5.4218,-6.95946 l -5.52967,-5.75496 -5.69919,5.6992 -5.69919,5.69919 5.91859,5.981 5.91859,5.98099 5.2024,-4.72072 c 2.86132,-2.5964 5.25094,-5.26276 5.31027,-5.92524 z"
         id="path2" />
    </g>
  </g>
</svg>
